<svg width="92" height="92" viewBox="0 0 92 92" fill="none" xmlns="http://www.w3.org/2000/svg">
<g clip-path="url(#clip0_8_10)">
<circle cx="46" cy="46" r="46" fill="white"/>
<path fill-rule="evenodd" clip-rule="evenodd" d="M46 1C58.427 1 69.033 5.394 77.819 14.181C86.607 22.967 91 33.573 91 46C91 58.426 86.607 69.033 77.819 77.82C69.033 86.607 58.427 91 46 91C35.36 91 26.057 87.779 18.09 81.337C16.119 79.954 14.259 78.454 12.509 76.836C10.05 74.377 8.131 71.951 6.754 69.558C4.983 66.64 3.722 63.739 2.967 60.853C2.238 58.345 1.754 55.771 1.517 53.131C1.172 50.823 1 48.446 1 46C1 33.573 5.394 22.967 14.181 14.181C22.967 5.394 33.573 1 46 1ZM69.656 21.558L67.737 20.771C66.393 20.345 65.475 20.083 64.983 19.984L63.508 19.738L62.721 19.689L63.361 20.131L64.688 20.722C65.016 20.853 65.836 21.262 67.147 21.951L68.869 22.885C69.263 23.148 69.918 23.59 70.836 24.213L71.918 25.049C72.05 25.148 72.394 25.492 72.951 26.082L74.082 27.213C74.311 27.541 74.64 28.017 75.065 28.64C76.508 30.639 77.541 33.263 78.164 36.508C78.624 39 79 42.853 79.295 48.065C79.295 48.557 79.395 49.048 79.591 49.541C79.854 50.197 80.246 50.508 80.771 50.476C81.525 50.444 81.903 49.591 81.903 47.918C81.608 42.771 81.165 38.804 80.575 36.017C79.854 32.607 78.625 29.722 76.887 27.361C76.329 26.706 75.92 26.214 75.658 25.886C75.396 25.558 75.182 25.328 75.018 25.197L73.1 23.574L71.871 22.738C70.82 22.213 70.082 21.819 69.656 21.558ZM66.066 27.115C65.212 26.688 64.278 26.36 63.262 26.131L62.721 26.082L63.065 26.476C63.294 26.672 64.065 27.247 65.378 28.198C65.574 28.329 65.886 28.607 66.313 29.033L67.493 30.115C68.411 31.099 69.214 32.197 69.903 33.411C71.772 36.755 72.477 41.05 72.017 46.296C71.985 46.624 72.034 46.952 72.164 47.28C72.296 47.771 72.606 48.034 73.099 48.066C73.985 48.23 74.476 47.706 74.575 46.492C74.837 43.378 74.706 40.624 74.181 38.23C73.656 35.968 72.853 34.001 71.772 32.329C70.853 30.919 69.821 29.755 68.672 28.837C68.313 28.542 67.853 28.198 67.296 27.804C66.737 27.442 66.328 27.213 66.066 27.115ZM61.148 33.41C62.197 34.328 63 35.442 63.557 36.754C64.574 38.918 65.082 41.541 65.082 44.623C65.082 45.279 65.491 45.64 66.311 45.705C66.802 45.77 67.179 45.656 67.441 45.36C67.606 45.131 67.687 44.901 67.687 44.672C67.72 41.195 66.999 38.196 65.523 35.671C64.54 34.032 63.294 32.9 61.786 32.277L60.557 31.982H59.82L59.475 32.081L59.721 32.376L61.148 33.41ZM58.197 40.836C58.984 42.278 59.426 43.804 59.525 45.41C59.623 47.279 59.246 49.147 58.393 51.016C57.376 53.114 55.869 54.787 53.869 56.033C51.705 57.509 49.181 58.246 46.295 58.246C44.59 58.181 43.148 57.901 41.968 57.41C41.017 56.951 40.312 56.623 39.853 56.427C38.967 55.804 38.329 55.295 37.935 54.903C36.754 53.788 35.935 52.394 35.476 50.722C34.984 49.049 34.918 47.263 35.279 45.361C35.542 43.46 36.247 41.656 37.394 39.952C38.607 38.115 40.099 36.755 41.87 35.87C42.361 35.542 43.198 35.198 44.378 34.837C45.264 34.509 45.739 34.329 45.805 34.296C46.199 34.1 46.411 33.87 46.445 33.608C46.445 33.345 46.216 33.132 45.756 32.968C45.297 32.772 44.74 32.673 44.084 32.673C42.674 32.739 41.543 33.034 40.69 33.559C38.527 34.641 36.707 36.296 35.231 38.526C33.985 40.427 33.15 42.543 32.723 44.871C32.363 47.265 32.477 49.428 33.067 51.362C33.559 53.395 34.592 55.149 36.166 56.625C36.593 57.051 37.363 57.658 38.478 58.445C38.774 58.608 39.199 58.822 39.757 59.084C40.248 59.347 40.674 59.543 41.035 59.675C42.412 60.232 44.133 60.543 46.199 60.609C49.51 60.577 52.461 59.675 55.052 57.904C57.379 56.364 59.068 54.38 60.116 51.954C61.1 49.691 61.511 47.512 61.345 45.413C61.182 43.544 60.591 41.79 59.575 40.15C58.756 38.773 57.821 37.674 56.772 36.855C55.131 35.445 53.345 34.51 51.411 34.051L49.493 33.657L48.214 33.608L46.591 33.804L49.346 34.296C49.804 34.395 50.379 34.574 51.068 34.837C52.739 35.361 54.33 36.329 55.838 37.738C56.755 38.558 57.541 39.59 58.197 40.836ZM47.599 41.229C47.382 41.196 47.161 41.18 46.935 41.18C45.657 41.18 44.558 41.606 43.64 42.458C43.017 43.146 42.623 43.917 42.46 44.77C42.426 44.901 42.394 45.033 42.36 45.164C42.23 45.819 42.262 46.476 42.46 47.132C42.655 47.623 42.901 48.033 43.197 48.361C43.328 48.557 43.475 48.754 43.639 48.951C44.557 49.836 45.656 50.278 46.934 50.278C48.148 50.278 49.212 49.836 50.131 48.951C51.016 48.033 51.458 46.967 51.458 45.754C51.458 44.476 51.016 43.377 50.131 42.459C49.913 42.257 49.684 42.077 49.443 41.918C48.881 41.548 48.267 41.318 47.599 41.229ZM12.804 57.509C13.623 61.082 14.836 63.951 16.444 66.115C16.607 66.377 17.049 66.886 17.771 67.639L18.362 68.327L21.508 70.737C21.705 70.901 22.459 71.294 23.772 71.917L25.689 72.753C26.935 73.213 27.836 73.475 28.394 73.54L29.919 73.786C30.377 73.851 30.64 73.868 30.705 73.835C30.673 73.77 30.459 73.639 30.065 73.442L28.689 72.753C28.557 72.688 27.738 72.294 26.23 71.573L24.557 70.638C23.671 70.114 23.016 69.671 22.59 69.31L19.885 66.95L19.344 66.262C18.819 65.704 18.475 65.262 18.311 64.934C16.902 62.869 15.885 60.229 15.262 57.016C14.77 54.721 14.376 50.885 14.081 45.507C13.983 43.803 13.508 42.967 12.654 42.999C12.163 43.032 11.835 43.393 11.671 44.081C11.54 44.573 11.491 45.098 11.524 45.655C11.787 50.968 12.214 54.918 12.804 57.509ZM25.738 48.853C25.705 52.394 26.426 55.377 27.901 57.804C28.884 59.541 30.114 60.673 31.589 61.198C32.081 61.361 32.507 61.476 32.868 61.542H33.507C33.736 61.51 33.868 61.46 33.902 61.395L33.656 61.149L32.278 60.117C31.328 59.33 30.508 58.216 29.819 56.772C28.803 54.608 28.311 51.985 28.343 48.903C28.343 48.248 27.917 47.887 27.065 47.821C26.574 47.789 26.213 47.903 25.984 48.166C25.82 48.361 25.738 48.59 25.738 48.853ZM21.262 46.197C21.099 45.737 20.771 45.475 20.279 45.41C19.46 45.311 18.967 45.836 18.803 46.983C18.541 49.934 18.689 52.688 19.246 55.246C19.705 57.475 20.491 59.459 21.606 61.197C22.425 62.475 23.459 63.639 24.705 64.688C25.295 65.147 25.77 65.475 26.131 65.671C26.722 66.098 27.114 66.344 27.312 66.409C28.263 66.9 29.214 67.228 30.165 67.392C30.46 67.457 30.641 67.457 30.706 67.392C30.706 67.327 30.574 67.211 30.312 67.048L28.049 65.326C27.623 64.966 27.295 64.686 27.066 64.49C26.739 64.227 26.361 63.85 25.935 63.359C25.05 62.473 24.247 61.391 23.526 60.113C21.624 56.801 20.902 52.506 21.362 47.227C21.394 46.869 21.361 46.524 21.262 46.197Z" fill="black"/>
<circle cx="47" cy="47" r="13" fill="white"/>
<circle cx="47" cy="47" r="5" fill="black"/>
</g>
<defs>
<clipPath id="clip0_8_10">
<rect width="92" height="92" fill="white"/>
</clipPath>
</defs>
</svg>
