<svg width="207" height="32" viewBox="0 0 207 32" fill="black" xmlns="http://www.w3.org/2000/svg">
<path d="M178.148 1.15969L178.144 1.16275L178.12 1.16493C178.106 1.16099 178.094 1.16209 178.082 1.16318C178.032 1.16251 177.971 1.16294 177.909 1.16336C177.847 1.16379 177.66 1.17316 177.359 1.19038C176.999 1.21305 176.668 1.24359 176.358 1.28004L174.989 1.35105C174.922 1.35454 174.911 1.36874 174.947 1.39171C175.005 1.40746 175.093 1.423 175.201 1.43941L176.835 1.631L180.862 2.15733L184.778 2.03848C185.106 2.05035 185.657 2.06269 186.43 2.0836C186.449 2.08448 186.518 2.08602 186.617 2.08736C186.717 2.08869 186.86 2.08871 187.052 2.0894C188.023 2.0393 188.595 2.0182 188.78 2.01692C188.799 2.0178 188.806 2.01976 188.818 2.01867C188.837 2.01955 188.856 2.02043 188.88 2.01825C189.16 2.02136 189.557 2.04789 190.084 2.09674C190.256 2.07032 190.49 2.04347 190.786 2.0162C191.846 1.96852 192.57 1.92013 192.944 1.87515C192.941 1.87012 192.851 1.86267 192.691 1.85367C192.271 1.84245 191.826 1.82028 191.347 1.78018C190.358 1.74764 189.367 1.71008 188.37 1.67558L187.192 1.66049L186.375 1.77009C186.187 1.75322 186.07 1.74293 186.006 1.73832C184.618 1.70046 183.488 1.65982 182.611 1.61439L181.287 1.5337L180.177 1.42025L178.482 1.18164C178.401 1.16807 178.286 1.16277 178.148 1.15969ZM170.269 1.48358L170.245 1.48576C170.157 1.48334 169.97 1.4927 169.678 1.5038L169.146 1.49233L168.38 1.50771C168.211 1.50483 168.062 1.50284 167.931 1.50172C167.769 1.50082 167.639 1.4997 167.542 1.5034C166.704 1.52532 166.428 1.55347 166.692 1.58698L167.227 1.66403L168.231 1.83474C168.561 1.88596 168.768 1.91682 168.84 1.92339C169.153 1.97876 169.342 2.00875 169.406 2.01335C169.437 2.01314 169.475 2.01489 169.513 2.01665C169.582 2.01819 169.66 2.01362 169.747 2.00292C169.925 1.98656 170.26 1.93984 170.742 1.86385C170.884 1.85076 171.012 1.84684 171.111 1.84817C171.123 1.84708 171.135 1.84599 171.154 1.84687C171.242 1.84929 171.328 1.8598 171.424 1.8773C171.698 1.96524 171.851 2.01162 171.87 2.01249C172.074 2.05953 172.27 2.09149 172.453 2.11142C172.608 2.12347 172.794 2.13531 173.02 2.14082C173.234 2.14742 173.409 2.15226 173.533 2.1514C173.602 2.15295 173.652 2.15361 173.694 2.15231C173.849 2.15124 174.003 2.15018 174.15 2.14715L174.909 1.99556L174.067 1.83887C173.979 1.82333 173.871 1.80692 173.764 1.7905L173.558 1.76467L172.369 1.62956C171.689 1.56057 171.287 1.52399 171.158 1.51478C171.049 1.50645 170.751 1.49438 170.269 1.48358ZM127.741 2.19871L127.828 2.23546L127.816 2.23655C127.778 2.23479 127.752 2.23194 127.721 2.23216L127.716 2.23522L127.741 2.19871ZM83.5821 1.51617L83.8459 1.52344L87.8609 1.64814L88.7778 1.661C89.9956 1.65663 91.0587 1.64021 91.9623 1.61479L91.9813 1.61567C92.0173 1.62551 91.99 1.65699 91.8948 1.71316L91.3814 1.88424C89.6199 1.89136 88.6422 1.90514 88.4437 1.92871C88.2642 1.95317 88.1582 1.9761 88.1304 1.99446C88.1731 1.99316 88.204 1.99295 88.2348 1.99273C88.2919 1.99537 88.3418 1.99603 88.3798 1.99779C88.5012 2.00503 88.6395 2.02123 88.7969 2.03831C89.0982 2.09477 89.3301 2.13656 89.4854 2.16174C89.3316 2.17592 89.1685 2.19622 88.9988 2.22767C87.2539 2.17007 85.1963 2.13079 82.8377 2.10872C82.0658 2.10093 81.2584 2.09641 80.4155 2.09516C80.3178 2.08574 80.2864 2.07284 80.3003 2.06366L80.3122 2.06257L80.9825 1.83489L81.2712 1.68454L81.2784 1.68651C81.3751 1.66969 81.4718 1.65287 81.5685 1.63606L81.7881 1.60527C82.0293 1.58039 82.2232 1.55988 82.3606 1.54985C82.5997 1.53306 83.003 1.52219 83.5821 1.51617ZM143.534 2.86667L143.268 2.94117C142.824 2.91901 142.383 2.89378 141.931 2.86965L141.919 2.87074C142.378 2.87061 142.905 2.87201 143.522 2.86775L143.534 2.86667ZM112.86 2.22611C114.335 2.36126 115.172 2.46043 115.374 2.52869C116.454 2.46068 117.483 2.42632 118.466 2.42256L118.485 2.42344C117.736 2.46091 116.839 2.5226 115.784 2.61467L110.673 2.75691L110.661 2.758C110.582 2.74946 110.511 2.74288 110.432 2.73435L110.331 2.76734L109.971 2.77689C109.151 2.82091 108.71 2.85623 108.645 2.88596L109.521 3.01314L109.529 3.01511L109.5 3.02035L109.496 3.02341C109.26 3.01091 108.996 3.00365 108.728 2.99944C108.113 2.99561 107.404 3.01363 106.612 3.0524L102.403 2.99567C100.936 3.00983 99.7423 3.02513 98.8381 3.0374L98.8453 3.03937L98.4118 3.003C99.4075 2.96383 100.159 2.88396 100.68 2.76228L96.869 2.39495C97.7942 2.37545 98.6155 2.37079 99.3304 2.37595C100.071 2.38395 100.706 2.40178 101.232 2.43751L102.992 2.88863L102.714 2.50097L103.473 2.42306C103.696 2.42354 103.931 2.42292 104.173 2.42428C104.85 2.42768 105.611 2.44969 106.457 2.4822L107.15 2.46833C110.132 2.40134 112.035 2.32066 112.86 2.22611ZM90.4591 2.90449L91.3215 2.91973C91.7047 2.94232 92.0878 2.96491 92.4637 2.98552L91.4401 3.10361L91.4474 3.10558L88.3643 3.07136L88.3453 3.07048C88.4425 3.06678 88.5397 3.06309 88.6441 3.06136C88.912 3.05244 89.4665 3.02238 90.3171 2.97815C90.3645 2.97379 90.4138 2.96134 90.4607 2.94386C90.4792 2.93162 90.4787 2.9185 90.4499 2.91063L90.4591 2.90449ZM139.766 3.38588C139.824 3.38852 139.919 3.39291 140.037 3.39512L140.021 3.39927C139.793 3.44929 139.476 3.4969 139.089 3.53792L138.916 3.44323L139.766 3.38588ZM32.5668 1.8271C32.4742 1.82774 32.377 1.83143 32.2824 1.84016L30.5902 2.0436L29.4896 2.13194L28.174 2.18744C27.7471 2.20048 27.0544 2.21434 26.0911 2.23209L26.1029 2.231L24.8719 2.57357C25.1069 2.57296 25.489 2.56931 25.9992 2.56175L29.8386 2.75526L33.8556 2.31378L35.4927 2.16017C35.6203 2.14314 35.7051 2.12742 35.7473 2.11299C35.7823 2.0966 35.77 2.08458 35.715 2.07386C35.265 2.04163 34.8151 2.00942 34.3723 1.97916C34.0144 1.93319 33.6663 1.89421 33.3377 1.86922C33.2091 1.86002 33.0353 1.84709 32.8424 1.83328C32.8044 1.83152 32.7236 1.83107 32.6167 1.82777L32.5976 1.82689C32.5858 1.82798 32.5786 1.826 32.5668 1.8271ZM40.332 2.29833L40.1967 2.30027C39.8002 2.29998 39.506 2.30604 39.3214 2.32044C39.1177 2.33396 38.7649 2.3586 38.2537 2.40048L37.0707 2.50957C36.9643 2.51939 36.794 2.53772 36.5651 2.57462L35.718 2.71067L36.4507 2.87214C36.6291 2.88202 36.8502 2.89058 37.1115 2.89281C37.1804 2.89436 37.2421 2.89393 37.3156 2.89241C37.8474 2.89076 38.1699 2.87945 38.264 2.85762C38.3869 2.84365 38.5356 2.81941 38.7336 2.78272C38.7995 2.76612 38.9404 2.72679 39.1493 2.66277C39.2414 2.64902 39.3242 2.64138 39.4095 2.63877C39.4214 2.63768 39.4404 2.63856 39.4594 2.63944C39.4831 2.63725 39.5211 2.63901 39.5782 2.64164C39.6497 2.64822 39.733 2.6537 39.8379 2.66508C40.3207 2.74956 40.6241 2.79793 40.7244 2.81238C40.8555 2.82661 40.9604 2.838 41.0412 2.83845C41.072 2.83824 41.0957 2.83606 41.1193 2.83388C41.2001 2.83433 41.3914 2.80878 41.698 2.75419C41.8589 2.74198 42.0621 2.71534 42.3126 2.68435L43.2899 2.5363L43.8783 2.4636C43.9822 2.44876 43.9555 2.43279 43.7863 2.4168C43.579 2.39906 43.3219 2.38065 43.0247 2.36857C42.9177 2.36527 42.7727 2.36021 42.5804 2.35952C42.4616 2.35731 42.3381 2.35816 42.1957 2.35814L41.4418 2.32499L40.9172 2.3286C40.641 2.30931 40.4508 2.30054 40.332 2.29833ZM134.287 3.73871C134.726 3.75081 135.178 3.76183 135.627 3.76781C135.646 3.76869 135.658 3.7676 135.67 3.76651L135.689 3.76739C135.901 3.80831 136.238 3.86149 136.708 3.92083C135.674 3.88457 134.39 3.84498 132.862 3.8121L132.843 3.81122L134.287 3.73871ZM53.19 4.11975L53.1781 4.12084C53.2332 4.13157 53.3046 4.13814 53.4023 4.14756L53.5119 4.15588C53.6214 4.16421 53.6857 4.16881 53.7165 4.1686C53.7356 4.16948 53.8189 4.17496 53.9593 4.18307L54.1876 4.19361C54.1994 4.19252 54.3064 4.19582 54.5157 4.20547L54.8129 4.21755L54.7985 4.21361L53.19 4.11975ZM181.063 5.82501C182.02 5.83152 183.56 5.93694 185.678 6.13126L184.649 6.11818L183.839 6.22975C183.656 6.20982 183.527 6.20061 183.47 6.19797C182.075 6.15815 180.945 6.11751 180.068 6.07208L178.968 6.00498L178.949 6.0041C179.472 5.94801 180.084 5.88626 180.778 5.82496C180.87 5.82432 180.963 5.82368 181.063 5.82501ZM63.5338 5.55574L63.6963 5.58288L63.6844 5.58397C63.5759 5.60188 63.4982 5.61957 63.4396 5.63815L63.4278 5.63924L63.1681 5.6158L62.3591 5.57193L62.3401 5.57105C62.6914 5.56762 63.0853 5.56288 63.5219 5.55684L63.5338 5.55574ZM137.373 7.84495C137.411 7.84671 137.442 7.8465 137.48 7.84825L137.461 7.84737C137.147 7.91312 136.772 7.96617 136.349 8.01047L136.325 8.01266C136.256 8.01111 136.175 8.01066 136.094 8.01021L135.947 7.95269L135.943 7.95575L135.989 7.92515L135.977 7.92624C136.362 7.86706 136.826 7.84266 137.373 7.84495ZM59.165 7.35913C59.2077 7.35783 59.253 7.36155 59.2936 7.36833L59.2746 7.36746C59.2298 7.37685 59.0169 7.39648 58.6476 7.42527L58.643 7.42833C58.8477 7.38049 59.0154 7.35713 59.165 7.35913ZM58.4352 7.39747L58.4702 7.44164L58.4583 7.44273C58.3802 7.4473 58.3092 7.45385 58.231 7.45843L58.2264 7.46149C58.2897 7.43985 58.3529 7.41822 58.4234 7.39856L58.4352 7.39747ZM53.9158 7.36404L56.1476 7.61105C56.4072 7.63449 56.6165 7.64415 56.778 7.64505C56.8161 7.64681 56.8588 7.64551 56.8896 7.64529L56.9087 7.64617L56.7986 7.68528C56.7178 7.68483 56.6299 7.68241 56.5491 7.68196C56.0148 7.67858 55.5926 7.68856 55.2876 7.72195C54.6334 7.69013 54.2308 7.65355 54.0817 7.60412L53.9158 7.36404ZM51.6347 9.61739C51.6846 9.61805 51.7345 9.61872 51.7843 9.61938L51.7607 9.62156L51.7308 9.64801L51.738 9.64998C51.6691 9.64844 51.6002 9.6469 51.5313 9.64535L51.2027 9.62037L51.1909 9.62146C51.3498 9.61734 51.5041 9.61627 51.6347 9.61739ZM147.424 10.5516C147.799 10.5591 148.121 10.5821 148.397 10.6145L148.378 10.6137L146.764 10.6177C146.981 10.595 147.199 10.5723 147.424 10.5516ZM155.147 10.782L155.142 10.785C155.225 10.7905 155.304 10.799 155.387 10.8045L155.371 10.8087C155.356 10.8047 155.345 10.8058 155.333 10.8069C155.245 10.8045 155.183 10.8049 155.15 10.8001C155.147 10.7951 155.137 10.7881 155.128 10.7811L155.147 10.782ZM156.162 10.891C156.656 10.9482 157.226 11.022 157.87 11.1073L157.854 11.1115C156.766 11.1513 155.877 11.2069 155.182 11.2763L154.959 11.2284L154.955 11.2314L156.15 11.0738L156.15 10.8921L156.162 10.891ZM160.006 12.8165C160.686 12.8986 163.115 12.9747 167.321 13.0476L170.978 13.0789C171.823 13.072 172.553 13.0468 173.193 13.001L175.157 13.0278C176.69 13.0576 177.829 13.1052 178.586 13.1696L178.582 13.1727L143.832 12.8445L143.808 12.8467C143.813 12.8436 143.813 12.8436 143.81 12.8386L143.794 12.8427C144.111 12.8214 144.182 12.8017 144.017 12.7826L143.818 12.78L143.799 12.7791C143.796 12.7741 143.791 12.764 143.781 12.757C143.766 12.74 143.751 12.7229 143.732 12.7089L143.72 12.71C144.002 12.705 144.308 12.6979 144.65 12.6874L144.669 12.6883L144.923 12.7017L160.006 12.8165ZM198.673 13.0784L198.642 13.0786C198.562 13.0782 198.367 13.0856 198.076 13.0967C197.9 13.0918 197.724 13.087 197.543 13.0852C197.292 13.09 197.036 13.0978 196.777 13.1006C196.616 13.0997 196.466 13.0977 196.34 13.0935C196.179 13.0926 196.043 13.0945 195.939 13.0963C195.102 13.1182 194.825 13.1464 195.097 13.1818C195.431 13.23 195.617 13.2549 195.651 13.2597L196.628 13.4276C196.965 13.4808 197.166 13.5097 197.237 13.5163L197.617 13.5813L197.691 13.5929C197.77 13.6014 197.822 13.6071 197.829 13.6091C197.86 13.6089 197.879 13.6097 197.91 13.6095C197.986 13.613 198.064 13.6085 198.152 13.5978C198.329 13.5814 198.657 13.5327 199.134 13.4598C199.3 13.4445 199.421 13.4386 199.501 13.4391C199.509 13.441 199.521 13.44 199.521 13.44C199.639 13.4422 199.737 13.4516 199.821 13.4702C200.095 13.5581 200.249 13.6045 200.268 13.6054C200.512 13.6592 200.708 13.6911 200.851 13.7043C201.005 13.7163 201.191 13.7282 201.417 13.7337C201.631 13.7403 201.807 13.7451 201.937 13.7462C201.999 13.7458 202.056 13.7485 202.099 13.7471C202.253 13.7461 202.4 13.743 202.547 13.74L203.313 13.5904L202.464 13.4317L202.168 13.3853C202.049 13.37 201.975 13.3584 201.956 13.3575L200.766 13.2224C200.089 13.1585 199.684 13.1169 199.555 13.1077C199.446 13.0993 199.156 13.0892 198.673 13.0784ZM108.037 12.9832C108.18 12.9964 108.311 13.0106 108.442 13.0249L108.125 13.1068L108.113 13.1079C108.02 13.1085 107.923 13.1122 107.831 13.1128C107.876 13.056 107.913 13.0184 107.955 13.004L108.018 12.9824L108.037 12.9832ZM156.228 13.825C156.423 13.8913 156.599 13.9567 156.76 14.0182L156.741 14.0173C156.497 14.024 156.257 14.0277 156.018 14.0314L156.124 13.8268L156.119 13.8298L156.216 13.8261L156.228 13.825ZM78.6953 13.5459C78.8403 13.5509 78.9853 13.556 79.1376 13.563L79.1139 13.5652C78.9961 13.5892 78.9333 13.624 78.9256 13.6695L78.9065 13.6686C78.7625 13.6898 78.6164 13.719 78.4678 13.7433L78.456 13.7444C78.2796 13.7264 78.0914 13.7095 77.9104 13.6946L77.8939 13.6988C77.9156 13.6441 78.0133 13.593 78.1728 13.5414L78.1563 13.5456C78.3297 13.5454 78.503 13.5452 78.6763 13.545L78.6953 13.5459ZM17.9151 13.4829L17.4672 13.5032C16.2796 13.5548 15.0042 13.6039 13.6336 13.6487L15.0323 13.8409C15.1228 13.8484 15.2251 13.8547 15.3367 13.855C15.4673 13.8561 15.6072 13.8511 15.7662 13.847C16.2141 13.8267 16.7182 13.7828 17.2762 13.7235L18.7405 13.6438C18.7523 13.6427 18.7641 13.6416 18.776 13.6405C18.8135 13.6291 18.813 13.616 18.7863 13.6C18.7287 13.5843 18.6809 13.5755 18.6475 13.5707C18.6068 13.5639 18.559 13.5552 18.5066 13.5495L17.927 13.4818L17.9151 13.4829ZM34.3954 13.8113L34.3764 13.8104C34.3692 13.8084 34.3573 13.8095 34.3573 13.8095C34.2648 13.8102 34.1676 13.8139 34.0657 13.8206C33.501 13.8911 32.9336 13.9566 32.3735 14.0241L31.2729 14.1124L29.9573 14.1679C28.8521 14.1987 27.7273 14.2156 26.6046 14.2243C26.4601 14.2324 26.3392 14.2383 26.2328 14.2481L25.4445 14.1233C25.0598 14.122 24.6679 14.1186 24.2833 14.1172L21.3409 14.1648C20.7011 14.1974 20.2743 14.2105 20.0747 14.2078C20.0511 14.21 20.032 14.2091 20.013 14.2082C19.8731 14.2132 19.7903 14.2209 19.762 14.2261C19.9795 14.264 20.6799 14.3258 21.8678 14.4084C22.2134 14.4423 22.433 14.4721 22.5456 14.4986C23.1021 14.4604 23.4837 14.4437 23.6878 14.4433C23.7069 14.4441 23.7259 14.445 23.7377 14.4439C24.037 14.4479 24.6438 14.4841 25.5438 14.5486C25.7433 14.5512 25.9002 14.5552 25.9999 14.5565C26.0308 14.5563 26.0617 14.5561 26.0925 14.5559C26.7595 14.5523 27.3222 14.5504 27.7778 14.5452L31.6218 14.7357L35.6342 14.2973L37.276 14.1406C37.3634 14.1299 37.4436 14.1172 37.5259 14.0965C37.563 14.072 37.5507 14.06 37.4936 14.0574L36.1555 13.9596C35.7976 13.9136 35.4495 13.8746 35.1209 13.8497C35.0757 13.8459 34.9162 13.8369 34.6329 13.8157C34.583 13.815 34.507 13.8115 34.3954 13.8113ZM42.1226 14.2808L41.9801 14.2807C41.5836 14.2804 41.2894 14.2865 41.1001 14.304C40.6455 14.3354 40.2999 14.362 40.0442 14.3829L38.8541 14.49C38.7476 14.4998 38.5799 14.5232 38.3485 14.5551C38.0677 14.5994 37.7822 14.6468 37.4967 14.6942L38.2294 14.8557C38.4767 14.8671 38.7025 14.8726 38.902 14.8752C38.9638 14.8748 39.0327 14.8763 39.0944 14.8759C39.638 14.8732 39.9486 14.863 40.0191 14.8433C40.1184 14.8315 40.286 14.8082 40.5124 14.7662C40.5782 14.7496 40.7192 14.7103 40.928 14.6463C41.0247 14.6295 41.1076 14.6218 41.1929 14.6192C41.2048 14.6181 41.2238 14.619 41.2428 14.6199C41.2618 14.6208 41.3117 14.6214 41.357 14.6251C41.4331 14.6287 41.5164 14.6341 41.6213 14.6455C41.9416 14.7029 42.2332 14.7523 42.5078 14.7928C42.6343 14.8101 42.7438 14.8184 42.8245 14.8189C42.8554 14.8187 42.8791 14.8165 42.9027 14.8143C42.9835 14.8148 43.1748 14.7892 43.4839 14.7397C43.5549 14.7331 43.7534 14.7095 44.096 14.6648L45.0733 14.5167L45.6617 14.444C45.7656 14.4292 45.7389 14.4132 45.5769 14.3992C45.3625 14.3795 45.1007 14.3641 44.8081 14.349C44.7011 14.3457 44.5515 14.3437 44.3638 14.34C44.2522 14.3397 44.1215 14.3386 43.9791 14.3386C43.7271 14.3302 43.4797 14.3188 43.2324 14.3074L42.7006 14.309C42.427 14.2948 42.2295 14.2841 42.1226 14.2808ZM175.427 16.1172L176.237 16.2479C176.629 16.2513 177.021 16.2546 177.42 16.2599L177.574 16.2589L177.593 16.2598C176.181 16.4057 175.259 16.4908 174.837 16.5139C173.947 16.5776 173.252 16.6127 172.753 16.606L172.378 16.5985C171.855 16.4598 171.318 16.3303 170.768 16.21L170.749 16.2091L171.654 16.1756C172.034 16.1669 172.66 16.1565 173.545 16.1434C174.051 16.1389 174.557 16.1344 175.065 16.1349C175.126 16.1345 175.247 16.1286 175.427 16.1172ZM83.9613 15.9591L84.0064 16.0839L83.2963 16.0151L83.2844 16.0162C83.3266 16.0018 83.3734 15.9843 83.4275 15.9688L83.4084 15.9679C83.5982 15.9636 83.7761 15.9603 83.9494 15.9602L83.9613 15.9591ZM55.9412 15.8706C55.9911 15.8713 56.0292 15.8731 56.0482 15.8739C56.058 15.8809 56.0677 15.8879 56.0821 15.8919L56.0703 15.893C55.9397 15.8918 55.8163 15.8927 55.6856 15.8916C55.5406 15.8865 55.3909 15.8845 55.2367 15.8856L55.2176 15.8847C55.5663 15.8763 55.806 15.8726 55.9412 15.8706ZM85.7281 16.1827C86.1843 16.1907 86.733 16.198 87.3676 16.2158L87.3558 16.2169C87.0379 16.2252 86.7155 16.2365 86.3719 16.255C86.1343 16.2506 85.9039 16.2481 85.6782 16.2426L85.6663 16.2437L85.0539 16.1843L85.0348 16.1835C85.239 16.1831 85.4668 16.1805 85.7281 16.1827ZM12.3776 15.0306L12.3586 15.0297L12.3467 15.0308C12.266 15.0304 12.1688 15.0341 12.067 15.0408L10.3558 15.2434L9.25047 15.3348L7.94671 15.3892C7.32544 15.4097 6.2079 15.4285 4.58944 15.4487C4.44955 15.4537 4.32869 15.4596 4.2104 15.4705L3.43397 15.3447L2.26554 15.3366C1.72452 15.3443 1.17884 15.3552 0.630614 15.361L0 15.4481C0.0431257 15.5205 0.243604 15.6099 0.606069 15.7134C1.09621 15.6787 1.47784 15.662 1.75811 15.6651C1.77713 15.6659 1.80799 15.6657 1.82702 15.6666C1.82702 15.6666 1.83885 15.6655 1.85787 15.6664C1.9813 15.6655 2.53823 15.7011 3.52609 15.7679C3.70197 15.7728 3.85163 15.7748 3.98226 15.7759C4.00129 15.7768 4.03214 15.7766 4.05117 15.7774C4.74904 15.7736 5.31632 15.7687 5.76015 15.7646L9.61132 15.9571L13.6237 15.5186L15.2583 15.36C15.3411 15.3523 15.4332 15.3386 15.5155 15.3178C15.5453 15.2914 15.533 15.2794 15.4759 15.2767L14.1379 15.179C13.9111 15.1472 13.5774 15.1122 13.1557 15.0747C12.8986 15.0563 12.7248 15.0434 12.6414 15.0379C12.5653 15.0344 12.4774 15.0319 12.3776 15.0306ZM20.1048 15.5001L19.9623 15.5001C19.5658 15.4998 19.2716 15.5058 19.0824 15.5233C18.8859 15.5388 18.5331 15.5634 18.0265 15.6022L16.8363 15.7094C16.7298 15.7192 16.5622 15.7425 16.3307 15.7744L15.4861 15.9155L16.2116 16.075C16.3448 16.0811 16.5279 16.0879 16.7536 16.0934C16.8035 16.0941 16.8534 16.0948 16.9033 16.0954C16.9722 16.097 17.0339 16.0966 17.0766 16.0953C17.6083 16.0936 17.9308 16.0823 18.0368 16.0594C18.1479 16.0465 18.3084 16.0212 18.4946 15.9856C18.6427 15.9482 18.7837 15.9089 18.9174 15.8676C19.0023 15.8519 19.097 15.8431 19.1823 15.8405C19.1942 15.8394 19.2132 15.8403 19.2322 15.8412C19.313 15.8416 19.4415 15.8508 19.6035 15.8649C20.0935 15.9513 20.3851 16.0008 20.49 16.0122C20.6237 16.0314 20.726 16.0378 20.8067 16.0382C20.833 16.0411 20.8638 16.0409 20.8875 16.0387C20.9657 16.0341 21.157 16.0086 21.4661 15.959C21.6245 15.9418 21.8303 15.9201 22.0782 15.8841L23.0627 15.738L23.6465 15.6684C23.755 15.6505 23.7211 15.6326 23.5591 15.6186C23.4922 15.6089 23.2305 15.5936 22.7856 15.5714C22.6905 15.567 22.5409 15.565 22.3485 15.5643C22.2344 15.5591 22.1109 15.5599 21.9613 15.5579C21.7093 15.5496 21.4619 15.5382 21.2099 15.5298L20.6828 15.5284C20.4092 15.5141 20.2118 15.5034 20.1048 15.5001ZM119.747 17.2234C120.521 17.3099 121.353 17.3991 122.252 17.4847L122.259 17.4867C121.377 17.4574 120.483 17.4293 119.58 17.4073L119.561 17.4064L118.537 17.2691L119.673 17.225C119.685 17.2239 119.704 17.2248 119.728 17.2226L119.747 17.2234ZM160.002 18.0235L161.574 18.047L166.822 18.258L163.85 18.2109C163.532 18.206 163.221 18.2031 162.921 18.1991C159.96 18.1721 157.826 18.1899 156.52 18.2523L155.152 18.2285L155.571 18.0924C155.64 18.0939 155.702 18.0935 155.771 18.095C156.436 18.0995 156.948 18.0708 157.299 18.0068L157.318 18.0076C157.491 18.0075 157.667 18.0123 157.84 18.0121C158.567 18.0162 159.282 18.0213 159.99 18.0245L160.002 18.0235ZM169.041 18.3456L170.848 18.4159L170.843 18.419L169.708 18.4026C169.498 18.3798 169.272 18.3612 169.029 18.3467L169.041 18.3456ZM46.336 18.9069L47.3597 19.1047L47.3479 19.1058C46.4092 19.2687 45.8346 19.3927 45.5979 19.4751C45.5244 19.4766 45.4318 19.4773 45.332 19.4759C45.2729 19.4814 45.1993 19.4829 45.1186 19.4825C44.5009 19.4736 43.3146 19.3698 41.5498 19.1639L41.538 19.165C43.3051 19.1205 44.9093 19.0358 46.336 18.9069ZM146.765 20.4524C146.784 20.4533 146.815 20.4531 146.841 20.4559L146.83 20.457C146.806 20.4592 146.79 20.4633 146.773 20.4675L146.761 20.4686C146.711 20.4679 146.661 20.4673 146.607 20.4696L146.595 20.4707C146.659 20.4622 146.711 20.4548 146.765 20.4524ZM123.289 20.2137C123.546 20.219 123.776 20.2215 123.995 20.225L123.983 20.2261L125.001 20.2665L124.989 20.2676C124.881 20.2986 124.865 20.3159 124.936 20.3225L128.081 20.4037L128.069 20.4048C128.037 20.4525 127.992 20.4962 127.927 20.539C127.363 20.5883 126.807 20.6265 126.266 20.6474C126.194 20.6277 126.106 20.6121 126.001 20.6007L125.989 20.6018C125.721 20.6107 125.442 20.6339 125.147 20.6742L125.135 20.6753C125.004 20.6742 124.886 20.672 124.762 20.6729C124.743 20.672 124.724 20.6711 124.705 20.6702L124.34 20.696L124.348 20.6979C124.079 20.6806 123.833 20.6611 123.6 20.6405L123.588 20.6416C123.592 20.6254 123.594 20.6042 123.591 20.5861C123.777 20.503 123.88 20.4488 123.895 20.4185C123.923 20.4001 123.883 20.3933 123.783 20.392L123.776 20.39C123.776 20.39 123.764 20.3911 123.757 20.3891C123.714 20.3904 123.664 20.3898 123.598 20.3933L123.586 20.3944L123.277 20.2148L123.289 20.2137ZM121.551 20.6294L120.971 20.804L120.959 20.8051C120.762 20.8206 120.578 20.835 120.41 20.8583C120.381 20.8505 120.369 20.8384 120.383 20.8292L120.583 20.6502L120.564 20.6494C120.846 20.6444 121.152 20.6372 121.484 20.6329L121.551 20.6294ZM118.286 20.762C118.286 20.8094 118.273 20.8448 118.248 20.8682C118.198 20.8675 118.148 20.8669 118.098 20.8662C117.81 20.8611 117.562 20.8709 117.346 20.8855L117.353 20.8875L118.274 20.763L118.286 20.762ZM115.976 20.6406C116.045 20.6422 116.107 20.6418 116.164 20.6444C116.567 20.681 116.597 20.7888 116.247 20.9658L116.732 20.9685L116.883 20.9493L116.895 20.9482C116.768 20.9783 116.662 21.0144 116.6 21.0622L115.978 21.009L115.974 21.0121L115.992 20.9393L114.661 20.7567L113.685 20.6887L113.673 20.6898C114.526 20.6506 115.292 20.6353 115.976 20.6406ZM159.449 21.3649C159.73 21.3811 160.054 21.396 160.405 21.4057L160.394 21.4068L159.671 21.4602L158.495 21.4845L159.449 21.3649ZM154.598 21.4095L155.268 21.4715L155.27 21.4765C154.94 21.4596 154.552 21.4401 154.114 21.4199L154.098 21.424C154.269 21.4188 154.427 21.4147 154.579 21.4086L154.598 21.4095ZM155.916 21.4801C155.99 21.4917 156.052 21.5044 156.134 21.518C156.031 21.5116 155.917 21.5063 155.796 21.4991L155.777 21.4982L155.904 21.4812L155.916 21.4801ZM119.984 21.1053L119.62 21.2178L119.615 21.2209L119.371 21.2145L119.352 21.2136C119.334 21.1784 119.304 21.1443 119.284 21.1172L119.265 21.1163C119.488 21.1168 119.728 21.1131 119.972 21.1064L119.984 21.1053ZM55.0334 21.1344C55.2123 21.1574 55.2555 21.1692 55.1557 21.1678C54.032 21.2109 53.1757 21.232 52.5961 21.2249C52.285 21.222 52.0448 21.2125 51.8875 21.1954L51.8756 21.1965L55.0144 21.1335L55.0334 21.1344ZM76.8008 22.2599L78.3825 22.3983L78.3635 22.3975C77.2974 22.3957 76.4005 22.41 75.6702 22.4352C75.5159 22.4363 75.3714 22.4444 75.2197 22.4505L75.2079 22.4515C74.8634 22.3833 74.5291 22.3351 74.198 22.3051L74.1861 22.3062C74.2118 22.2959 74.2468 22.2795 74.2818 22.2631L74.3008 22.264L75.0645 22.3042C75.1406 22.3077 75.2214 22.3081 75.2949 22.3066C75.7557 22.3115 76.2252 22.2972 76.7154 22.2625C76.7391 22.2603 76.7627 22.2581 76.7864 22.256L76.8008 22.2599ZM49.8565 22.349C49.8874 22.3488 49.9254 22.3505 49.9635 22.3523L49.715 22.3752L49.7948 22.3494C49.8066 22.3483 49.8303 22.3461 49.8565 22.349ZM58.2057 22.0108L61.8566 22.0532L63.8477 22.2171C63.4434 22.2623 63.3122 22.3691 63.4468 22.5358C62.8538 22.551 62.0443 22.5545 61.0183 22.5465C60.1775 22.5371 59.1962 22.5197 58.0699 22.4971L57.7048 22.5098C57.262 22.4795 56.7904 22.4414 56.2854 22.3984C56.0885 22.4008 55.9105 22.4041 55.766 22.4121C55.8056 22.3927 55.8643 22.3741 55.9229 22.3555C56.3755 22.3322 57.1845 22.3155 58.3596 22.3125L58.2057 22.0108ZM73.4534 22.2658L73.8658 22.3094L73.854 22.3105C73.5227 22.4016 73.3457 22.4916 73.3394 22.5765L73.323 22.5806L72.3657 22.7558L72.3611 22.7588L72.2655 22.7413L70.2517 22.6058C69.7014 22.6197 69.2293 22.629 68.8235 22.6349L68.8189 22.6379C68.3422 22.5292 67.8434 22.462 67.339 22.4322L67.0993 22.4358C66.9332 22.438 66.7743 22.4421 66.6153 22.4462L66.6225 22.4482C66.5768 22.4314 66.5336 22.4195 66.4904 22.4077C66.7671 22.3796 67.8147 22.333 69.6354 22.2599L69.6498 22.2638C69.6405 22.2699 69.6359 22.273 69.6338 22.2811C69.6924 22.3231 69.8287 22.3474 70.0473 22.3509C70.0899 22.3496 70.1398 22.3503 70.1871 22.3459C70.4695 22.3409 70.7565 22.3329 71.0573 22.3157C71.0573 22.3157 71.0836 22.3185 71.1453 22.3181C71.3068 22.319 71.6842 22.3184 72.2824 22.3133L73.4534 22.2658ZM73.6965 22.9727L73.8054 23.089L73.7936 23.0901C73.7817 23.0912 73.7745 23.0892 73.7699 23.0923L73.5637 23.1007L73.5803 22.9755L73.5684 22.9766C73.6039 22.9733 73.642 22.975 73.6775 22.9718L73.6965 22.9727ZM67.5495 22.9051C67.5983 22.94 67.6687 22.9809 67.7581 23.0227L67.108 23.0958C67.2382 23.0233 67.3781 22.9577 67.5376 22.9061L67.5495 22.9051ZM101.74 23.4221L101.735 23.4251C101.773 23.4269 101.818 23.4306 101.856 23.4324L101.845 23.4335C101.795 23.4328 101.752 23.4341 101.709 23.4354L101.721 23.4212L101.74 23.4221ZM83.9828 23.2983L84.0691 23.322L84.0573 23.323C84.0049 23.3174 83.9498 23.3066 83.8856 23.302L83.8665 23.3012C83.8974 23.3009 83.9329 23.2977 83.9709 23.2994L83.9828 23.2983ZM81.2374 23.4041L81.5382 23.4474L81.5264 23.4485C81.5146 23.4496 81.5027 23.4507 81.4909 23.4518C81.3906 23.4373 81.3094 23.4238 81.2379 23.4172L81.2374 23.4041ZM95.0802 23.5517L95.1372 23.6149C95.9703 23.6092 96.7443 23.6089 97.49 23.6138L97.5018 23.6127L97.4926 23.6189C97.4221 23.6385 97.3634 23.6571 97.3022 23.6706L97.2976 23.6737C96.592 23.6624 95.8438 23.6524 95.0672 23.6477C94.7298 23.642 94.376 23.6404 94.0268 23.6357L94.0294 23.6407C94.0289 23.6276 94.031 23.6195 94.033 23.6114L94.0212 23.6125C94.2156 23.6051 94.4383 23.5925 94.6965 23.5766C94.8173 23.5707 94.9428 23.5618 95.0683 23.5528L95.0802 23.5517ZM99.5706 23.6378C100.283 23.6511 100.944 23.6718 101.546 23.6979L101.564 23.6725L101.707 23.6988L101.544 23.7191L101.525 23.7182C101.272 23.7311 101.023 23.7409 100.779 23.7476L100.774 23.7507C100.308 23.7357 99.8231 23.7199 99.3098 23.7093L99.298 23.7104C99.3968 23.6855 99.4837 23.6617 99.5516 23.637L99.5706 23.6378ZM138.979 24.1156L139.086 24.1189L139.067 24.118C139.077 24.125 139.075 24.1331 139.078 24.1381L139.066 24.1392L138.979 24.1156ZM73.5533 23.2747C73.8552 23.2837 74.1925 23.2895 74.5751 23.2989L74.5633 23.3C74.5494 23.3092 74.5263 23.3245 74.4866 23.3439C74.7175 23.4201 74.8604 23.4938 74.9153 23.565L75.2671 23.5747L75.2743 23.5767L75.2697 23.5798L74.3995 23.5494L73.5353 23.3L73.5343 23.2738L73.5533 23.2747ZM129.569 24.1113L129.124 24.2103L129.131 24.2122C129.243 24.1993 129.371 24.1954 129.513 24.1955C129.782 24.1997 130.096 24.2207 130.463 24.2606L130.451 24.2617C130.425 24.2588 130.401 24.261 130.382 24.2601C129.729 24.2545 129.073 24.2439 128.427 24.2272L128.41 24.2313L128.612 24.2259L129.569 24.1113ZM155.685 24.6091L155.678 24.6071L155.661 24.6113C155.666 24.6082 155.666 24.6082 155.673 24.6102L155.685 24.6091ZM133.767 24.3294C134.105 24.3351 134.473 24.3407 134.867 24.349L134.855 24.3501C134.834 24.4048 134.803 24.4656 134.758 24.5355L134.739 24.5346L133.993 24.5771L133.988 24.5802L133.755 24.3305L133.767 24.3294ZM126.767 24.2404L126.559 24.586C126.157 24.5625 125.779 24.5369 125.412 24.5101L125.388 24.5123C125.377 24.466 125.314 24.427 125.213 24.3995L124.922 24.35L124.159 24.4098C123.721 24.3634 123.304 24.3228 122.925 24.2841L122.906 24.2832C123.034 24.2793 123.155 24.2734 123.275 24.2675L123.264 24.2686L126.767 24.2404ZM150.727 24.6029C151.518 24.659 151.506 24.7944 150.702 25.0028C150.926 25.0295 151.141 25.0492 151.351 25.072L151.332 25.0711C151.05 25.1023 150.728 25.1267 150.354 25.1455L150.349 25.1485C150.782 24.8428 150.905 24.6602 150.72 24.601L150.727 24.6029ZM144.776 24.204L145.635 24.2354L145.609 24.5485L145.628 24.5493C146.104 24.4502 146.485 24.3728 146.787 24.3213L146.794 24.3233L146.804 24.4645C146.964 24.4735 147.109 24.4786 147.254 24.4836C147.62 24.4841 147.953 24.4586 148.265 24.4009L148.279 24.4049C148.423 24.4574 148.551 24.5009 148.654 24.5335L148.635 24.5326L148.643 24.6214L149.58 24.7219L150.342 25.1466L150.326 25.1507C149.615 25.19 148.739 25.2101 147.705 25.2213C147.669 25.2246 147.646 25.2268 147.648 25.2318L147.644 25.2349L146.421 25.0475L145.91 25.0419L145.898 25.043C146.215 25.1902 146.221 25.3002 145.913 25.3629L145.908 25.3659C145.117 25.3441 144.24 25.325 143.289 25.3073L143.278 25.3084C143.142 25.2972 143.009 25.291 142.868 25.2829L141.401 25.0417L142.015 24.5218C141.939 24.5051 141.85 24.4896 141.762 24.4741L141.769 24.476C141.762 24.4741 141.762 24.4741 141.767 24.471L141.771 24.4679L141.769 24.4629L141.757 24.464L141.747 24.4701L141.736 24.4712C141.327 24.4114 140.801 24.3757 140.16 24.369C140.075 24.3717 139.987 24.3692 139.894 24.3699L139.534 24.2714L139.553 24.2723C139.603 24.273 139.648 24.2767 139.694 24.2804C139.872 24.2903 140.055 24.2971 140.248 24.2978C140.566 24.3027 140.915 24.2942 141.301 24.2744L141.313 24.2733L141.778 24.4568C141.906 24.3923 142.037 24.3329 142.165 24.2815L142.184 24.2824L143.618 24.8216C144.266 24.8908 144.83 24.9283 145.334 24.9318C145.391 24.9345 145.445 24.9321 145.495 24.9328L144.425 24.268C144.477 24.2474 144.59 24.2264 144.757 24.2031L144.776 24.204ZM153.985 25.719C154.758 25.753 155.485 25.7702 156.152 25.7797L156.133 25.7788C155.882 25.7967 155.23 25.8174 154.179 25.8458L153.773 25.8254L153.966 25.7181L153.985 25.719ZM79.5288 26.9771L79.572 26.9889L79.553 26.9881L79.517 26.9782L79.5288 26.9771ZM104.283 27.6087C104.374 27.6161 104.46 27.6266 104.526 27.6363L104.515 27.6374C104.496 27.6365 104.484 27.6376 104.465 27.6367C104.453 27.6378 104.439 27.6338 104.419 27.633C104.367 27.6273 104.315 27.6216 104.271 27.6098L104.264 27.6078L104.283 27.6087ZM81.5025 26.6214C82.0965 26.6324 82.7522 26.643 83.4532 26.6574L83.5509 26.6668L82.422 26.6998C82.7757 26.8225 83.5115 26.9416 84.6058 27.0592C84.5713 27.1493 84.8854 27.2309 85.5673 27.3049L83.5594 27.4479L83.5666 27.4499L83.5489 27.1725C83.4013 27.1624 83.2563 27.1573 83.1184 27.1542C82.9688 27.1522 82.8289 27.1572 82.6962 27.1642L82.6916 27.1673C82.8161 27.1321 82.9832 27.0956 83.1957 27.0629L81.4356 26.7934L81.4836 26.6205L81.5025 26.6214ZM102.207 27.4605C102.731 27.4912 103.174 27.5215 103.545 27.5451L103.528 27.5493L103.311 27.572L103.26 27.7399C103.248 27.741 103.241 27.739 103.229 27.7401C103.156 27.7416 103.039 27.7313 102.88 27.7223C102.41 27.6761 102.124 27.6498 102.029 27.6454C102.01 27.6445 101.984 27.6417 101.96 27.6439C101.941 27.643 101.922 27.6421 101.898 27.6443C101.792 27.6541 101.721 27.6607 101.664 27.658C101.659 27.6611 101.652 27.6591 101.645 27.6572C101.64 27.6602 101.64 27.6602 101.633 27.6583C101.571 27.6587 101.56 27.5992 101.617 27.4807L101.578 27.4659L101.59 27.4648C101.792 27.4725 101.987 27.4782 102.177 27.487L102.195 27.4616L102.207 27.4605ZM83.5841 27.472C83.8936 27.4961 84.1816 27.5143 84.4387 27.5327L84.4269 27.5338C84.4079 27.5329 84.3842 27.5351 84.3724 27.5362L84.3606 27.5373L84.3698 27.5311L84.3508 27.5303C84.3462 27.5333 84.3462 27.5333 84.339 27.5314L84.3343 27.5344L84.3415 27.5364L84.3369 27.5394L84.3441 27.5414C84.1003 27.5613 83.8421 27.5772 83.5721 27.5942L83.5651 27.4711L83.5841 27.472ZM109.451 27.6247L110.968 27.6849L110.975 27.6869L111.132 27.8725C111.14 27.8876 111.13 27.8937 111.107 27.8959C110.858 27.8582 110.582 27.8258 110.277 27.7987L110.172 27.7873L109.496 27.7496C109.455 27.7428 109.431 27.7318 109.431 27.7187L109.451 27.6247ZM105.845 27.3912L107.266 27.5419L108.024 27.572L108.005 27.5711C108.011 27.6549 108.052 27.7222 108.136 27.767C108.173 27.79 108.219 27.8068 108.285 27.8165C108.376 27.8239 108.521 27.829 108.704 27.8358L107.656 27.8693L107.816 27.8439L107.797 27.843C107.743 27.8454 107.674 27.8439 107.612 27.8443C107.363 27.841 107.082 27.8248 106.748 27.7897C106.229 27.7428 105.73 27.6756 105.245 27.5861L105.221 27.5883L105.845 27.3912ZM114.083 27.8057L119.314 28.0077L119.309 28.0108L119.438 28.02C118.23 28.0445 117.231 28.0524 116.428 28.0448C115.782 28.0412 115.259 28.0236 114.874 27.996L114.083 27.8057ZM89.5133 27.5967C89.5369 27.5945 89.556 27.5954 89.5822 27.5983L89.5632 27.5974C89.5277 27.6007 89.4875 27.607 89.4593 27.6122L89.6256 27.8654L89.2322 27.8833L88.4636 27.5908L88.4446 27.59C88.7295 27.59 88.9908 27.5923 89.214 27.5927L89.233 27.5936C89.2664 27.5984 89.3117 27.6022 89.3451 27.607L89.4943 27.5958L89.5133 27.5967ZM99.1526 27.408C99.4637 27.4109 99.7702 27.4169 100.077 27.4229L100.065 27.424C100.089 27.4349 100.12 27.4478 100.152 27.4607C100.162 27.4677 100.134 27.4861 100.078 27.5097C100.304 27.5888 100.447 27.6625 100.506 27.7308C100.777 27.74 101.041 27.7472 101.312 27.7565L101.41 27.7659L102.424 27.7619C102.599 27.7668 103.232 27.7927 104.319 27.8478C104.83 27.8664 105.22 27.8779 105.489 27.8821C106.108 27.8829 106.735 27.8856 107.355 27.8864C107.452 27.8827 107.542 27.877 107.625 27.8694L108.386 27.8914C108.61 27.9181 108.831 27.9398 109.058 27.9584L109.046 27.9595L108.023 27.9827C105.608 28.0316 103.691 28.1216 102.271 28.2525C101.857 28.217 101.485 28.1802 101.158 28.1472L101.142 28.1513L101.117 28.1273L100.365 28.0598L100.353 28.0609C100.002 28.0169 99.7392 27.9753 99.569 27.9331C99.4435 27.942 99.3299 27.9498 99.209 27.9557L98.0535 27.8517L98.0463 27.8497C97.0013 27.8408 95.9209 27.7745 94.7978 27.6491C94.7834 27.6451 94.7736 27.6381 94.7567 27.6292L94.771 27.6331L99.5461 27.7667C99.8233 27.7517 99.9843 27.7394 100.019 27.7231L99.1262 27.4658L99.1335 27.4072L99.1526 27.408ZM127.91 28.1784L128.036 28.1825C128.88 28.21 130.144 28.2356 131.847 28.2602C132.669 28.2687 133.267 28.2766 133.633 28.2771C133.813 28.2789 133.939 28.2831 134.001 28.2827C134.771 28.2854 135.82 28.2913 137.136 28.2963L137.155 28.2972C137.207 28.3029 137.231 28.3139 137.23 28.3351C137.11 28.3672 136.866 28.4476 136.503 28.5732L136.196 28.7358L136.184 28.7369L135.877 28.7915L135.594 28.8308C135.407 28.8533 135.211 28.8688 134.995 28.8834C134.685 28.9067 134.258 28.9198 133.722 28.9245C132.189 28.8816 130.656 28.8386 129.123 28.7957C128.793 28.7919 128.462 28.7882 128.132 28.7844C127.211 28.7877 126.063 28.8067 124.663 28.8436C124.718 28.7807 124.762 28.7451 124.783 28.7379L125.338 28.5524C126.193 28.5525 127.121 28.538 128.12 28.517C128.34 28.5125 128.518 28.4961 128.666 28.4719L128.843 28.4293L128.828 28.4253C128.798 28.4255 128.767 28.4258 128.736 28.426C128.586 28.424 128.401 28.4121 128.184 28.3874L127.498 28.269L127.376 28.2486L127.371 28.2517L127.91 28.1784ZM79.7953 29.1741C79.4513 29.1795 79.1545 29.1806 78.9005 29.1803C78.6773 29.1798 78.487 29.1711 78.3276 29.1621L78.3111 29.1662L79.7763 29.1733L79.7953 29.1741ZM113.783 29.6703C114.273 29.6962 114.731 29.7092 115.154 29.7123C115.496 29.715 115.817 29.7118 116.115 29.7027L116.127 29.7016L115.14 29.8295L115.135 29.8326C114.89 29.8131 114.692 29.8023 114.55 29.8023C114.455 29.7979 114.376 29.8025 114.324 29.8099C114.153 29.7414 114.009 29.7021 113.904 29.6907C113.864 29.6839 113.811 29.6782 113.771 29.6714L113.783 29.6703ZM37.2256 28.5106L37.1449 28.5102C36.9145 28.5077 36.6867 28.5103 36.4614 28.5179L35.6461 28.68L36.5547 28.8463L36.8724 28.8986C36.9393 28.9083 37.018 28.9168 37.0966 28.9253L38.3842 29.0699C39.1108 29.1345 39.5469 29.1759 39.6827 29.1871C39.7994 29.1974 40.1131 29.2053 40.6335 29.2178C40.6644 29.2176 40.7307 29.2141 40.8161 29.2115L41.2666 29.1963L41.8416 29.2065C42.1167 29.1995 42.3919 29.1926 42.667 29.1856C42.7858 29.1879 42.8974 29.1881 43.0044 29.1914C43.2276 29.1919 43.4127 29.1906 43.567 29.1895C44.053 29.171 44.3328 29.161 44.4084 29.1514C44.5884 29.1401 44.6162 29.1217 44.5062 29.1003L43.8783 29.0108L42.8222 28.8343C42.5594 28.7928 42.3399 28.763 42.1681 28.742L41.7475 28.6702C41.6735 28.6586 41.602 28.652 41.5305 28.6454C41.5043 28.6426 41.4734 28.6428 41.4498 28.645C41.369 28.6445 41.2837 28.6471 41.189 28.6559C40.9951 28.6764 40.6433 28.7273 40.1217 28.8096C39.9561 28.8249 39.8234 28.8318 39.7355 28.8294C39.7237 28.8305 39.7165 28.8285 39.7046 28.8296C39.5858 28.8274 39.4809 28.816 39.3925 28.8005C39.0943 28.7016 38.9334 28.6533 38.9144 28.6524C38.6655 28.6016 38.4768 28.5716 38.3457 28.5574C38.2618 28.5388 37.8885 28.5232 37.2256 28.5106ZM136.297 30.3891L136.335 30.3908L136.327 30.3888C136.327 30.3888 136.316 30.3899 136.308 30.388L136.297 30.3891ZM29.2512 28.5269L27.1431 28.5949L25.0422 28.665C24.4004 28.6452 23.811 28.6311 23.2741 28.6227C23.2551 28.6218 23.2052 28.6211 23.1291 28.6176C23.0175 28.6174 22.8442 28.6176 22.6092 28.6182C22.2229 28.638 21.7775 28.6633 21.2679 28.6839C21.0071 28.6948 20.8292 28.6981 20.7222 28.6948C20.6986 28.697 20.6677 28.6972 20.6368 28.6974C20.3375 28.6934 19.8973 28.6682 19.3445 28.6165C19.163 28.649 18.9171 28.677 18.6023 28.7033C17.1072 28.7833 16.3424 28.838 16.2889 28.8667C16.3223 28.8715 16.4057 28.877 16.5532 28.887C16.5651 28.886 16.5769 28.8849 16.5959 28.8857C16.7029 28.889 16.924 28.8976 17.2475 28.9125C17.4758 28.9231 17.7257 28.9395 18.0019 28.9588C19.0669 28.9948 20.132 29.0309 21.1971 29.067L22.4607 29.0794L23.3274 28.9574C23.4775 28.9725 23.6179 28.9806 23.7393 28.9879C25.227 29.027 26.4442 29.0701 27.3839 29.1151L28.8069 29.1972L29.9937 29.3141L31.8387 29.5678C31.9246 29.5784 32.0269 29.5847 32.1694 29.5847C32.2501 29.5852 32.3309 29.5856 32.4352 29.5839C32.9213 29.5654 33.4824 29.5242 34.1089 29.4533L35.5731 29.3735C35.6394 29.37 35.6508 29.3558 35.6189 29.3298C35.5135 29.3053 35.4107 29.2858 35.2986 29.2725L33.577 29.0785L29.2512 28.5269ZM81.1453 0L69.6976 0.831881C69.6497 0.883685 70.0528 0.933384 70.8977 0.987101C71.4428 1.02371 72.2533 1.04638 73.3246 1.05816C73.7854 1.06305 74.2935 1.06358 74.8561 1.06172C74.8524 1.09102 76.2543 1.18025 79.0307 1.32964L80.0412 1.42863L79.3452 1.60603C77.8343 1.58213 76.6252 1.56727 75.7036 1.55747C74.3166 1.54584 73.6069 1.55075 73.5626 1.57325L71.5621 1.47604L71.0828 1.54394L71.8447 1.78696C70.9175 1.69344 70.032 1.63294 69.1881 1.60546C67.0297 1.5386 65.5754 1.50423 64.8106 1.4984C64.4377 1.49593 64.2336 1.49632 64.2032 1.50966C63.9903 1.5293 64.8624 1.6121 66.8221 1.76306C67.1384 1.77602 67.7015 1.78727 68.5161 1.79377C68.6041 1.79619 68.7038 1.79752 68.7964 1.79688C69.5436 1.90174 70.0701 1.95059 70.3694 1.95458C70.4692 1.95591 70.5474 1.95133 70.5921 1.94194L70.6771 2.30268C70.4472 2.31335 70.1459 2.31745 69.773 2.31498C68.5902 2.30296 66.6828 2.21821 64.0508 2.06074L63.8665 2.20937C63.5456 2.19947 63.3008 2.19309 63.1275 2.19328C62.9398 2.18952 62.8307 2.19431 62.7953 2.19759L62.7033 2.58781L61.9201 2.53366L61.8119 2.74636C61.7548 2.74373 61.6977 2.74109 61.6432 2.74349C61.275 2.73795 61.0286 2.75278 60.9206 2.78379L60.916 2.78685L45.3063 2.62307L48.8481 3.10729L57.1381 3.83031C58.4629 3.82924 59.4355 3.80537 60.0557 3.75868C60.5216 3.77364 60.9803 3.78662 61.4463 3.80157C62.0382 3.76014 62.5371 3.70623 62.9502 3.64182L62.9692 3.6427C62.8977 3.69669 62.9619 3.76185 63.1639 3.83009C62.3302 3.94383 61.9366 4.02224 61.9813 4.07341C62.0975 4.13115 62.6879 4.17148 63.738 4.19048L63.719 4.1896L63.7339 4.20666L63.9756 4.1949L63.9946 4.19578C64.0754 4.19623 64.1679 4.19559 64.2559 4.19801L64.244 4.1991L64.0717 4.22552C63.9437 4.22943 64.0454 4.28323 64.375 4.395C63.8772 4.35403 63.4344 4.32378 63.0251 4.29834C62.823 4.29065 62.6327 4.28187 62.4543 4.272L62.4378 4.27615C62.3972 4.26937 62.3447 4.26367 62.283 4.2641C62.2521 4.26431 62.2213 4.26453 62.1832 4.26277L62.1858 4.2678C62.1287 4.26517 62.0788 4.2645 62.0218 4.26187C62.0572 4.25859 61.7153 4.25591 60.986 4.24681C59.0826 4.26701 57.8982 4.27617 57.4302 4.26931C57.3875 4.27061 57.3494 4.26886 57.3186 4.26907C56.8696 4.26309 56.5394 4.25931 56.3065 4.25183L54.8377 4.21352L59.1615 4.47032C59.5004 4.51542 60.044 4.57324 60.8112 4.64464L60.7875 4.64683C60.734 4.67546 60.6759 4.70715 60.6131 4.7419C61.1109 4.78287 61.4975 4.83672 61.785 4.90236L61.7731 4.90345L61.7685 4.90651C60.8897 4.83486 59.8792 4.73586 58.7423 4.61958C58.7114 4.61979 58.6734 4.61803 58.6353 4.61628C58.2316 4.61402 57.3598 4.66545 56.02 4.77058C54.5749 4.73008 53.5002 4.68706 52.8028 4.6434L51.6189 4.6657C51.6071 4.66679 51.5834 4.66898 51.5644 4.6681C51.3031 4.66587 50.8367 4.63779 50.1631 4.59198C49.9167 4.6068 49.5228 4.61153 48.9766 4.60925C48.5524 4.56676 48.0551 4.5389 47.4678 4.51671L47.456 4.5178L48.307 4.60781L46.284 4.41789C45.8289 4.43617 45.3377 4.4446 44.827 4.43905C44.447 4.4346 44.0454 4.42426 43.6411 4.40887L40.9452 4.50216C37.9968 4.51342 35.6434 4.56197 33.8968 4.64668C33.6397 4.62827 33.3589 4.55148 33.05 4.41938L32.2189 4.47759L31.5787 4.31548C31.2208 4.33006 30.815 4.33589 30.3614 4.33297C30.1002 4.33074 29.8245 4.32456 29.5345 4.31445L24.7082 4.5779L23.4405 4.58159L24.4279 4.63534L28.2314 4.69792C29.5304 4.76768 30.5456 4.80307 31.2749 4.81217C31.5171 4.81353 31.7331 4.81204 31.9157 4.80574L36.3325 5.13556C37.2067 5.14972 38.1 5.16474 38.9955 5.1717C41.6651 5.1967 44.4238 5.18979 47.2857 5.15488C48.6333 5.00428 49.7427 4.89671 50.6213 4.83414L53.9246 5.16659L58.6461 5.26827C58.6585 5.28029 58.678 5.29429 58.6903 5.30631L58.6785 5.3074C58.534 5.31547 58.3823 5.32156 58.2331 5.33268L58.2403 5.33465L57.4622 5.29056C56.8276 5.27273 56.426 5.26239 56.2337 5.26169C56.1719 5.26212 56.1339 5.26036 56.1221 5.26145C55.5795 5.22987 55.2298 5.2121 55.073 5.20814C55.0612 5.20923 55.0421 5.20835 55.0303 5.20944L55.0066 5.21162C54.9922 5.20769 54.9804 5.20878 54.9686 5.20987C54.7881 5.20809 54.6559 5.22817 54.5818 5.27713C54.6244 5.33638 54.7267 5.4033 54.8742 5.47394L54.615 5.46362L39.7461 5.42892C40.1051 5.38002 37.6952 5.31792 32.5355 5.24353L28.7577 5.23125C28.1122 5.24075 27.4462 5.27059 26.7524 5.31877L25.5485 5.31396C22.6644 5.26928 21.0352 5.19571 20.6538 5.09138L20.642 5.09247C20.5283 5.10032 20.5967 5.1493 20.8496 5.24445C20.8115 5.24269 20.7616 5.24202 20.7118 5.24136C20.2582 5.23844 19.2244 5.27585 17.5941 5.35775C16.5198 5.32782 15.4311 5.29394 14.3398 5.25505L11.5833 5.69089L14.622 5.92931L16.3466 6.26259C18.5746 6.10188 20.3073 6.02633 21.5519 6.03792C21.6753 6.03707 21.7941 6.03928 21.9083 6.04455L23.3812 6.5037C23.6707 6.56125 23.9165 6.59387 24.1304 6.60047C26.396 6.4284 28.1524 6.35061 29.4087 6.36119C29.4467 6.36295 29.4848 6.3647 29.5203 6.36143C31.9603 6.65244 33.1249 6.8109 33.0123 6.84501L33.0313 6.84588C33.2561 6.82516 33.543 6.81713 33.8778 6.81783C34.9301 6.82874 36.4994 6.95515 38.5769 7.20323C41.2435 7.1495 43.239 7.05494 44.547 6.92381L47.8357 7.55512L48.6878 7.61081L49.0632 7.61831C50.1768 7.49456 51.0542 7.40575 51.6976 7.34377L51.7048 7.34574C51.8863 7.43431 52.0322 7.52617 52.1499 7.62325L52.1309 7.62237C51.5024 7.64084 51.0853 7.66087 50.8678 7.68357C50.2601 7.93706 48.4799 8.19864 45.5225 8.4713C44.9712 8.45895 44.5737 8.43243 44.3346 8.38866C43.8386 8.14481 43.1969 8.00389 42.4167 7.9679C42.3643 7.9622 42.3098 7.9646 42.2455 7.96C42.0413 7.9604 41.7806 7.97128 41.4586 7.9957L38.1798 8.30595C38.1562 8.30814 38.1253 8.30835 38.0826 8.30965C37.6218 8.30476 36.1676 8.14927 33.7082 7.84429C33.2191 7.84464 32.802 7.86468 32.4661 7.89828L28.8574 8.52068C27.9452 8.38365 25.7865 8.24314 22.3834 8.10413C20.0869 8.33697 18.3602 8.44879 17.2083 8.43653C16.8473 8.43297 16.5357 8.41695 16.2924 8.38936L16.0188 8.43565C16.6811 8.55623 16.8444 8.73072 16.5109 8.95103C16.0942 9.1053 15.0142 9.1733 13.2733 9.16008C13.2109 9.32906 13.3095 9.48583 13.5526 9.63454C13.5443 9.66689 13.954 9.82656 14.7843 10.1186C19.5176 10.1586 22.4183 10.1385 23.486 10.0586L39.6781 10.295L44.7829 10.177C45.3384 10.1126 45.8656 10.0535 46.3599 10.0026L46.3789 10.0035L46.9013 10.1291C47.2155 10.1501 47.5364 10.16 47.8594 10.1618C47.8738 10.1658 47.8856 10.1647 47.9046 10.1655C48.1777 10.1667 48.3819 10.1663 48.5336 10.1602L48.5408 10.1622C48.5717 10.162 48.6545 10.1543 48.801 10.1382C48.8839 10.1305 49.0397 10.1083 49.2449 10.0735C49.318 10.0589 49.4661 10.0215 49.6868 9.95644C49.7552 9.94486 49.8452 9.93919 49.9805 9.93725C49.9877 9.93922 49.9923 9.93616 49.9995 9.93813C50.0921 9.93749 50.2206 9.94669 50.3878 9.97077C50.8613 10.0614 51.1817 10.1187 51.356 10.1448C51.4753 10.1601 51.5658 10.1675 51.6275 10.1671C51.6584 10.1669 51.6774 10.1678 51.6939 10.1636L51.7648 10.1571L51.7792 10.161C51.8466 10.1838 51.9329 10.2074 52.0239 10.228C52.5218 10.2084 53.0701 10.142 53.6616 10.0269L53.676 10.0308C54.1763 10.1374 54.6452 10.2311 55.0828 10.3118L55.071 10.3129L54.2964 10.3606L54.5442 10.5063L54.5395 10.5093C53.4837 10.4672 52.5689 10.4462 51.8088 10.4374C50.9253 10.4294 50.2516 10.4441 49.7805 10.4796L49.5934 10.3679C48.7351 10.3365 48.0269 10.3202 47.471 10.3109C46.806 10.3064 46.3555 10.3216 46.1431 10.3543L44.8626 10.2724C44.8435 10.2715 44.8364 10.2695 44.8173 10.2686C44.6558 10.2677 44.3986 10.3704 44.0482 10.5818L38.8899 10.6073L35.2638 10.9048C34.5804 10.852 33.3787 10.718 31.6606 10.4947C30.3225 10.4575 29.0178 10.4251 27.7419 10.4006C26.4135 10.3704 24.9761 10.345 23.4277 10.3325C22.2521 10.3224 21.0219 10.3148 19.7279 10.3156L16.0274 10.5279L17.0186 10.8077L20.7933 10.9835C22.4328 11.0166 23.7329 11.0521 24.6864 11.0879L27.6124 11.2392C28.1462 11.2295 28.6281 11.2272 29.0653 11.2342C29.6186 11.2385 30.0964 11.2524 30.4939 11.2789L32.7122 11.1112L31.7087 11.1958C32.5059 11.1802 33.0819 11.1561 33.4414 11.1203C33.4794 11.122 33.5221 11.1207 33.5602 11.1225C33.9212 11.1261 34.3182 11.1395 34.7394 11.1638C35.175 11.1315 35.7037 11.1117 36.3327 11.1064C36.685 11.1292 37.12 11.1444 37.6286 11.158C38.1142 11.1264 39.2836 11.1001 41.1346 11.0743C42.4932 11.2122 43.4646 11.2832 44.0442 11.2904C44.106 11.2899 44.1558 11.2906 44.2104 11.2882L47.5904 11.0186L48.9024 10.9924C49.536 10.9234 50.0833 10.8914 50.5441 10.8963C50.5821 10.8981 50.6248 10.8968 50.6701 10.9005C51.0655 10.9351 51.7412 10.9728 52.69 11.0117L52.6736 11.0158L52.5418 11.1702L53.2528 11.3257L52.6643 11.5195C52.3573 11.5005 52.0863 11.4912 51.8322 11.491C51.5448 11.4859 51.2958 11.4957 51.0829 11.5153L51.5501 11.7513C51.4457 11.8136 51.314 11.8468 51.1453 11.8439C50.9648 11.8421 50.7401 11.8023 50.483 11.7233L50.3178 11.8728L50.3013 11.877C50.2443 11.8743 50.1754 11.8728 50.1136 11.8732L49.4806 11.8342L49.4369 11.8698L49.4132 11.872C49.2754 11.8689 49.1211 11.87 48.9642 11.866C48.5652 11.8607 48.1424 11.8576 47.6935 11.8516L44.1793 11.9071C44.1721 11.9051 44.1603 11.9062 44.1485 11.9073C43.9489 11.9047 43.6656 11.8229 43.2868 11.663L42.4217 11.7033L41.7955 11.532C41.5749 11.5365 41.328 11.5382 41.0668 11.536C40.6631 11.5337 40.2162 11.5196 39.7024 11.4959L34.7358 11.6906C34.5553 11.6889 34.382 11.689 34.2015 11.6873C33.9592 11.6859 33.7217 11.6815 33.4887 11.674L33.4769 11.6751L34.4411 11.7441L38.3371 11.8666C39.8655 11.9732 41.0215 12.0298 41.8125 12.0385C41.9122 12.0398 42.0048 12.0392 42.0974 12.0385L43.1171 12.1314C42.8914 12.1259 42.6774 12.1193 42.4732 12.1197C42.4043 12.1182 42.3236 12.1177 42.2547 12.1162L37.6041 12.4449L37.5851 12.4441C37.3172 12.453 37.0446 12.4649 36.7601 12.478L34.7853 12.4311C32.8748 12.3888 31.4632 12.2925 30.5458 12.1454L30.534 12.1465C30.4157 12.1574 30.4748 12.2125 30.7159 12.3088C30.6825 12.3039 30.6064 12.3004 30.4804 12.2963C30.034 12.2953 28.9997 12.3196 27.3803 12.3742C25.9676 12.3123 24.5497 12.2403 23.1222 12.1613L23.1104 12.1624L26.9313 12.8052C26.4992 12.8687 25.8136 12.9451 24.8745 13.0344C23.8407 13.1323 22.633 13.2174 21.2521 13.3026C21.9314 13.3716 22.4842 13.4233 22.8961 13.4537C23.0318 13.4649 23.3337 13.4739 23.7971 13.4839C23.7971 13.4839 23.8017 13.4808 23.8089 13.4828C23.8588 13.4834 24.065 13.4749 24.4302 13.4623L25.0051 13.4725L25.8234 13.4497C25.9612 13.4528 26.08 13.455 26.1844 13.4532C26.4292 13.4596 26.6071 13.4564 26.7234 13.4536C27.2546 13.4388 27.5555 13.4216 27.6239 13.41C27.754 13.398 27.7726 13.3858 27.6697 13.3663L27.0419 13.2768L26.9606 13.2632L26.9442 13.2673C27.6009 13.2436 28.3236 13.2033 29.1166 13.1433C29.4108 13.1373 29.6885 13.1354 29.9472 13.1326L29.9544 13.1345L29.2523 13.2151C30.1477 13.222 31.0549 13.2279 31.9503 13.2348L31.9621 13.2337C32.8587 13.5828 33.5564 13.7607 34.048 13.7654C34.1098 13.7649 34.1643 13.7625 34.2234 13.7571L36.8557 13.6118L39.5094 13.5934C40.7399 13.7353 41.9103 13.917 43.0301 14.1455C43.2081 14.1422 43.3932 14.1409 43.5809 14.1447C45.0795 14.1565 46.7924 14.3092 48.6935 14.5999C49.9756 14.6002 51.1739 14.5818 52.2931 14.5418L52.3075 14.5458C52.3707 14.5847 52.4411 14.6256 52.509 14.6614L47.0982 14.6049L50.5589 15.0756L50.5471 15.0767C50.2812 15.0775 50.1675 15.0854 50.1917 15.0963C50.169 15.1247 51.0268 15.2036 52.7721 15.3349C52.8389 15.3445 53.1979 15.3561 53.8346 15.3659L53.8228 15.367L55.6452 15.528L55.0501 15.6118L55.0637 15.8449L55.1053 15.8779C53.7724 15.8508 52.0906 15.7715 50.0558 15.6433L49.869 15.7869C49.5862 15.7788 49.3486 15.7743 49.1752 15.7745C48.9757 15.7719 48.8476 15.7758 48.7885 15.7812L48.726 16.0713L25.0784 15.8247L28.6131 16.307L29.5732 16.3922L26.493 16.5578L25.2253 16.5615L26.2127 16.6153L30.0163 16.6778C31.3152 16.7476 32.3258 16.786 33.0597 16.7921C33.3019 16.7934 33.5179 16.792 33.7005 16.7857L36.3411 16.9844L36.3483 16.9864L36.9058 17.035C36.9294 17.0328 36.9557 17.0357 36.9793 17.0335L36.9983 17.0344L38.1127 17.1185C38.987 17.1327 39.8659 17.1438 40.7685 17.1527C41.5713 17.1603 42.3905 17.1637 43.2098 17.1672L43.2288 17.168L43.5062 17.4084L44.8902 17.3413C46.592 17.3871 47.8489 17.4107 48.6517 17.4183C48.8131 17.4192 48.9628 17.4212 49.0862 17.4203L49.1006 17.4243L49.0651 17.4275L41.5309 17.4089C41.3767 17.3494 38.9787 17.2862 34.3204 17.2235L30.5379 17.2143C30.0442 17.2177 29.3782 17.2476 28.5373 17.2988L26.7609 17.2888C26.6185 17.2888 26.476 17.2888 26.3454 17.2877C24.8895 17.2745 23.5951 17.2017 22.4504 17.0703L22.4386 17.0714C22.3157 17.0853 22.3794 17.1374 22.6298 17.2275C22.5963 17.2227 22.5465 17.222 22.4966 17.2214C22.043 17.2184 21.0092 17.2559 19.3814 17.3428C16.8523 17.2654 15.1928 17.2052 14.4029 17.1622L13.8336 17.1752L15.871 17.8666L15.8828 17.8655L15.8782 17.8686L17.3547 18.359C17.7111 18.3656 18.0649 18.3672 18.4188 18.3688C20.6158 18.39 22.748 18.3934 24.8081 18.3772L24.8225 18.3811L25.1613 18.4868C25.4914 18.5511 25.7681 18.5835 25.9913 18.584L25.9985 18.586C27.8608 18.4247 29.6337 18.3429 31.3075 18.3465C32.1796 18.4293 33.0266 18.5355 33.8363 18.6661L33.8245 18.6672L19.5183 18.6307C19.1347 18.595 18.6065 18.5673 17.9102 18.5499L17.8984 18.551L21.8488 19.9085C21.8188 20.0561 20.645 20.2196 18.3111 20.4032L18.3301 20.4041C20.5986 20.3713 22.5896 20.2798 24.3192 20.1256L27.5627 20.7532C27.7252 20.7803 28.0703 20.8012 28.6169 20.8166L31.6 20.5336C32.1586 20.4873 32.5731 20.4623 32.8416 20.4665L35.9079 20.8076C36.1676 20.8311 36.3723 20.8438 36.5409 20.8467C36.6145 20.8451 36.669 20.8427 36.7235 20.8404C37.4137 20.8215 38.0027 20.7013 38.4812 20.4861C38.7173 20.4511 39.0799 20.4335 39.59 20.4259C42.9798 20.8426 44.5902 21.11 44.4239 21.2333C44.6291 21.2591 45.0647 21.2874 45.7162 21.3142L48.7387 21.254L48.7341 21.2571L49.3306 21.2731C49.4731 21.2732 49.5821 21.2684 49.6531 21.2618L49.6711 21.2365L49.6665 21.2395L51.7185 21.1951L51.7139 21.1981L51.2123 21.3076C50.8046 21.261 50.5567 21.2364 50.476 21.236C50.4569 21.2351 50.4451 21.2362 50.4477 21.2412L50.3348 21.5175C50.904 21.5651 51.2403 21.6051 51.3432 21.6246C51.3924 21.7333 51.5883 21.8258 51.9497 21.903C51.8612 21.948 51.3315 22.0022 50.3512 22.0715L49.0142 21.9394L48.8702 21.9606C48.4186 22.0102 48.3917 22.1759 48.7941 22.4547L48.7822 22.4558L48.3137 22.4963L46.6299 22.5463C45.248 22.4842 44.5698 22.4414 44.6022 22.42L43.766 22.4076C43.7115 22.41 43.6616 22.4094 43.6333 22.4146C43.262 22.4515 43.0279 22.5389 42.9331 22.6687C42.8471 22.7793 42.9288 22.8666 43.1782 22.9304C43.2342 22.9674 43.5823 23.0064 44.2272 23.0443C44.436 23.0409 44.7445 23.0387 45.1508 23.046C45.1555 23.043 45.1626 23.0449 45.1745 23.0438C45.3622 23.0476 45.7021 23.0584 46.1824 23.0773C46.582 23.0957 47.0772 23.1316 47.6778 23.1921C47.828 23.2072 47.9149 23.2439 47.9503 23.3012C47.7821 23.372 47.673 23.4374 47.6112 23.4984C47.6651 23.5434 47.806 23.5646 48.0246 23.5682C48.0745 23.5689 48.1172 23.5675 48.1671 23.5682C48.2833 23.5654 48.5749 23.5543 49.0301 23.536C49.0373 23.538 49.0681 23.5378 49.118 23.5384C49.2795 23.5393 49.6616 23.5357 50.2597 23.5306L55.5179 23.3247C55.9936 23.2861 56.3938 23.2571 56.723 23.2346C56.7302 23.2366 56.742 23.2355 56.7466 23.2324L56.761 23.2364C57.0074 23.2215 57.4528 23.1963 58.0833 23.1697C58.4459 23.1521 58.8301 23.1403 59.2189 23.1255C59.3418 23.1116 59.4601 23.1007 59.5784 23.0898L59.5974 23.0906C59.7095 23.104 59.836 23.1213 59.9744 23.1375L57.8291 23.2906C58.7388 23.362 59.448 23.4046 59.9494 23.4162C61.7015 23.4152 63.0099 23.4183 63.8743 23.4255C64.7342 23.4357 65.1549 23.4469 65.1271 23.4653L65.1389 23.4642C65.7608 23.3963 66.2463 23.3647 66.5883 23.3674C66.7189 23.3685 66.8331 23.3738 66.9261 23.3862L66.9405 23.3902L66.4948 23.2812L66.5138 23.2821C67.0563 23.3742 67.3951 23.4193 67.5258 23.4204C67.552 23.4233 67.5756 23.4211 67.5803 23.4181L67.7371 23.422L67.7253 23.4231C67.6944 23.4233 67.659 23.4266 67.6307 23.4318C67.2952 23.5391 66.841 23.6442 66.2773 23.7409L66.2845 23.7429C65.9081 23.7092 65.4889 23.6767 65.0246 23.6406L62.5076 23.6963C61.8591 23.6877 61.2106 23.679 60.5693 23.6723L59.2337 23.7007C59.1885 23.697 59.1386 23.6963 59.0887 23.6957C58.939 23.6937 58.7446 23.7011 58.5173 23.7168L58.4983 23.7159L58.2586 23.7196C58.1923 23.7231 58.0766 23.739 57.9068 23.7704L57.8878 23.7696L54.9113 24.0414C54.8949 24.0456 54.8712 24.0477 54.8332 24.046C54.4722 24.0424 53.0868 23.8885 50.6936 23.58L50.2735 23.5819L49.342 23.6257L45.7003 24.2564C44.3001 24.0854 42.1366 23.9479 39.2191 23.8379C36.8918 24.071 35.1652 24.1828 34.0323 24.1714C33.6713 24.1678 33.3668 24.1538 33.1236 24.1262C32.1684 24.2933 30.8897 24.4454 29.283 24.5857L26.4701 24.4739L23.6376 24.227C23.6139 24.2292 23.5949 24.2283 23.5687 24.2255C23.2956 24.2243 22.9716 24.2568 22.6012 24.3199L20.9314 24.7977C20.8815 24.7971 20.8244 24.7945 20.7627 24.7949C20.2402 24.7904 19.4153 24.7638 18.2855 24.71C17.7476 24.6754 17.1305 24.6191 16.4389 24.5381L14.928 24.4536L13.0104 24.7858L10.0125 24.9912L10.9125 25.5532C11.8351 25.5287 13.5955 25.4954 16.1917 25.4613C17.9937 25.5821 19.1405 25.6449 19.6013 25.6498C19.6393 25.6515 19.6702 25.6513 19.7011 25.6511L19.7129 25.65L19.507 25.7927C19.7462 25.7154 21.2593 25.6706 24.0437 25.6534L26.1528 25.6722C26.9031 25.7346 27.6266 25.7811 28.3255 25.8035L32.4495 25.8629C38.0722 25.8736 40.6997 25.8524 40.3222 25.7925L40.3366 25.7964L56.5143 26.0289L61.6191 25.9109C65.1373 25.5233 67.3689 25.3333 68.3142 25.3409C68.4021 25.3433 68.4829 25.3438 68.5543 25.3503L72.7912 26.1891L72.0392 26.269C70.6528 26.2099 69.505 26.1815 68.5952 26.1706C67.7189 26.1645 67.057 26.1782 66.6167 26.2135L66.4368 26.1037C65.5405 26.0706 64.8251 26.0523 64.2646 26.0461C63.5924 26.0396 63.1609 26.0557 62.9793 26.0882L61.6988 26.0062C61.3635 26.053 61.0872 26.1548 60.8844 26.3157L55.7334 26.3432L52.1001 26.6387C51.1544 26.5575 49.9573 26.4204 48.4969 26.2286C46.0367 26.1527 43.2709 26.0971 40.2096 26.0688C39.0339 26.0587 37.8228 26.0519 36.5643 26.0495L31.7267 26.3271L30.1473 26.3148L27.7091 26.3791L23.5562 26.3724L22.4468 26.4194C22.5749 26.4155 22.7292 26.4144 22.8979 26.4173C23.1709 26.4184 23.4847 26.4263 23.858 26.4419L29.091 26.8176C29.4613 26.8151 29.8007 26.8127 30.1 26.8167C30.5917 26.8214 30.9933 26.8317 31.3147 26.8548L32.0231 26.6894L32.9235 26.767C33.2744 26.6293 33.5825 26.5535 33.8715 26.5374L37.6298 26.7173C39.5521 26.7586 40.8521 26.794 41.5253 26.8267C42.5029 26.8735 43.4759 26.9233 44.4488 26.9731C44.9898 26.9653 45.4717 26.963 45.9063 26.965C46.4669 26.9713 46.94 26.9882 47.3303 27.0127L49.5558 26.847L48.5451 26.9297C49.4703 26.9102 50.051 26.8829 50.285 26.8561C50.3231 26.8578 50.3658 26.8565 50.4038 26.8583C50.7695 26.8588 51.1618 26.8753 51.5758 26.8977C51.8978 26.8732 52.4265 26.8534 53.1691 26.8402L54.465 26.8918C55.2211 26.8563 56.3834 26.8281 57.971 26.8081C59.3677 26.9478 60.3272 27.0199 60.838 27.0255C60.8879 27.0262 60.9306 27.0249 60.9733 27.0236L64.4342 26.7544L65.739 26.7262C66.0456 26.6716 66.6381 26.6433 67.5067 26.6343C68.3948 26.6998 69.6342 26.7619 71.2149 26.8136C71.8931 26.9774 72.488 27.0753 72.9925 27.1051C73.4667 27.0271 73.9343 26.9603 74.4095 26.9086L74.4213 26.9075C74.463 26.9405 74.5092 26.9705 74.5581 27.0055C74.72 27.0195 74.8651 27.0246 74.9911 27.0287C75.1027 27.029 75.2045 27.0222 75.2873 27.0146L75.9275 27.1161L75.8819 27.4758L75.8891 27.4777L73.0865 27.702C72.9621 27.6766 72.4936 27.6566 71.6908 27.649C70.8073 27.641 69.5159 27.6469 67.8213 27.6636L66.3171 27.568L65.5337 28.1931C65.072 28.1014 64.4827 28.0268 63.7823 27.965L62.2636 27.9866C61.5941 27.9246 60.5358 27.8774 59.0983 27.852L49.9867 28.4921L46.0889 28.9489L73.3444 29.1311L73.3562 29.13C73.3259 29.1433 73.2929 29.1516 73.2626 29.1649L75.549 29.2279C75.5608 29.2268 75.568 29.2288 75.5871 29.2296C75.6868 29.231 75.784 29.2273 75.8668 29.2196L75.9281 29.1455L75.9307 29.1506L77.8993 29.1612L77.4379 29.2643C77.0301 29.2177 76.7823 29.1931 76.6969 29.1957C76.6897 29.1938 76.6779 29.1949 76.6707 29.1929L76.5603 29.4742L77.5641 29.5844C77.6591 29.7099 77.8622 29.8044 78.1707 29.8628C77.7273 29.9405 77.1975 29.9947 76.5767 30.0282L75.2351 29.8992L74.9353 29.9426C74.5844 30.0198 74.6871 30.2209 75.2288 30.5422L76.0056 30.3047C76.0365 30.3045 76.0601 30.3023 76.091 30.3021C76.1291 30.3038 76.1743 30.3075 76.2196 30.3113L76.6134 30.3671L76.9412 30.7423L76.7306 30.9486C77.0968 30.9623 77.4059 30.9732 77.6671 30.9755C77.9093 30.9768 78.1063 30.9745 78.2555 30.9633C78.9168 30.9366 79.209 30.878 79.1155 30.7919L80.1307 30.7667L80.1498 30.7676C80.4264 30.8 80.2854 30.8999 79.7293 31.0723C80.5232 31.1596 81.2422 31.2092 81.8881 31.2128C82.0876 31.2155 82.2846 31.2131 82.4672 31.2068L83.1327 31.1638C82.995 31.0396 83.2214 30.9372 83.8211 30.8502C82.1823 30.7091 81.6199 30.5294 82.1457 30.3097C82.4131 30.2877 83.2293 30.273 84.5777 30.2697L84.4284 29.9649L88.0746 30.0104L90.0658 30.1743C89.6985 30.1951 89.5601 30.3 89.6695 30.49C89.1146 30.5069 88.3215 30.5063 87.2955 30.4983C86.4501 30.492 85.4452 30.4767 84.2855 30.4494L83.0476 30.4872C83.2506 30.5817 83.9818 30.7038 85.2314 30.8466C85.2688 30.9563 85.5948 31.0369 86.1929 31.0923L84.0476 31.2454C84.7979 31.3078 85.507 31.3503 86.1751 31.373C87.9082 31.3711 89.2048 31.3753 90.0692 31.3824C90.9291 31.3927 91.3616 31.4028 91.3574 31.419L91.3646 31.4209C91.932 31.3554 92.4056 31.3249 92.7785 31.3274C92.9209 31.3274 93.0423 31.3347 93.159 31.345L93.1662 31.3469L92.7205 31.238L93.7016 31.3765L100.171 31.5539C100.413 31.5422 100.574 31.5299 100.644 31.5103C99.7345 31.3783 99.4606 31.1692 99.8081 30.8792L98.4763 30.6966L96.4671 30.5581C95.7106 30.5805 94.987 30.5945 94.2865 30.5933C93.6339 30.6008 93.5366 30.7257 93.9806 30.9769L93.2312 31.0618C93.04 31.0268 92.8595 30.9645 92.6945 30.8718C92.6062 30.7351 92.7801 30.6269 93.2117 30.5503C93.0662 30.4715 92.8858 30.4092 92.6796 30.3571C92.7527 30.3425 94.0256 30.2883 96.4911 30.1926C96.8177 30.1651 97.1407 30.1064 97.4602 30.0163C97.597 29.9932 96.6503 29.9462 94.6106 29.8816L94.0244 29.8251L94.3013 29.6152L98.0907 29.4922L99.0474 29.3645L99.2444 29.3015L99.5864 29.3042L99.5982 29.3031C99.2006 29.3372 99.1065 29.359 99.323 29.3706C99.772 29.3766 100.221 29.3826 100.67 29.3886L100.658 29.3897C100.63 29.4555 100.701 29.5226 100.86 29.5921C100.966 29.6772 101.338 29.7877 101.996 29.9244C102.013 29.9334 102.011 29.9415 101.978 29.9498C101.95 29.9682 101.704 29.983 101.258 29.9951C101.028 30.0058 100.141 30.014 98.569 30.0167C98.0356 30.0396 97.8371 30.0632 97.9827 30.0813L101.287 30.2584C101.356 30.2599 101.437 30.2604 101.513 30.2639C101.967 30.2668 102.448 30.2514 102.934 30.2198C103.572 30.1609 103.931 30.112 103.984 30.0702C103.968 30.0138 103.924 29.9758 103.849 29.951C103.774 29.9132 103.534 29.8301 103.135 29.7036C103.096 29.6888 103.088 29.6737 103.104 29.6564C103.363 29.5931 103.639 29.5518 103.945 29.5315C104.02 29.5219 104.179 29.5178 104.391 29.5194C104.509 29.5216 104.647 29.5247 104.804 29.5286L107.607 29.6809C107.768 29.6818 107.918 29.6838 108.049 29.6849C108.498 29.6909 108.815 29.6826 108.998 29.6632C109.104 29.6665 109.181 29.67 109.217 29.6799C109.403 29.7785 109.717 29.8601 110.161 29.9166C109.854 30.0186 109.402 30.1156 108.809 30.2045C108.704 30.2405 108.688 30.2578 108.752 30.2624C110.283 30.3003 111.809 30.3413 113.332 30.3772L120.98 30.717L124.929 30.603C124.301 30.5266 123.796 30.4836 123.428 30.465C123.421 30.463 123.383 30.4612 123.309 30.4628C123.052 30.4575 122.388 30.4661 121.327 30.4875C121.301 30.4847 121.282 30.4838 121.259 30.486C121.109 30.484 120.964 30.4789 120.823 30.4708L118.413 30.214C118.289 30.2017 118.054 30.1892 117.7 30.1745C117.68 30.1736 117.65 30.1738 117.623 30.171C117.358 30.1718 116.971 30.1916 116.463 30.2385L115.424 29.8894L115.438 29.8934C115.626 29.9102 115.879 29.9317 116.195 29.9578L122.824 30.2653C123.488 30.3646 124.665 30.4615 126.361 30.5446L126.349 30.5457C126.446 30.5895 126.549 30.6352 126.651 30.6759L126.678 30.705C126.696 30.7402 126.685 30.7675 126.64 30.7769L126.347 30.8092C127.208 31.0273 127.709 31.147 127.866 31.1772C128.139 31.2389 128.34 31.2678 128.471 31.2689C128.556 31.2663 128.601 31.2569 128.617 31.2396C128.653 31.1415 128.7 31.0503 128.739 30.9703C128.837 30.7849 128.897 30.6846 128.916 30.6724C128.925 30.6662 128.927 30.6581 128.932 30.6551C129.204 30.4009 129.534 30.2704 129.921 30.2637L131.142 30.3986L131.13 30.3997L133.099 30.6182C133.126 30.6211 133.209 30.6266 133.351 30.6266C133.37 30.6275 133.394 30.6253 133.413 30.6262C133.475 30.6257 133.574 30.6271 133.722 30.624L133.71 30.6251L133.81 30.6265L133.814 30.6234C134.106 30.6254 134.468 30.5947 134.895 30.5211L134.91 30.525L135.306 30.4516L135.513 30.4088L135.501 30.4099C135.562 30.3964 135.624 30.3828 135.685 30.3693C135.73 30.373 135.825 30.3774 135.977 30.3844L135.958 30.3835L135.966 30.3855L135.996 30.3853L136.065 30.3868C136.096 30.3866 136.12 30.3844 136.146 30.3873L136.189 30.386L136.234 30.3897C136.246 30.3886 136.265 30.3895 136.284 30.3904L136.297 30.3891L136.289 30.3873L136.303 30.3913C136.334 30.391 136.365 30.3908 136.396 30.3906C137.072 30.394 138.212 30.3942 139.814 30.3781C140.067 30.3391 140.706 30.3064 141.743 30.2871C141.713 30.2399 142.296 30.1571 143.495 30.0308L146.778 29.8991C146.829 29.9129 147.019 29.9217 147.349 29.9255L147.33 29.9246C147.368 29.9263 147.411 29.925 147.461 29.9257C148.052 29.9317 149.032 29.9229 150.413 29.8983L154.55 30.0433L154.569 30.0442L157.81 30.1561C158.323 30.1192 158.574 30.0277 158.571 29.8884C158.5 29.7002 158.232 29.588 157.768 29.5518L156.887 29.5488C156.916 29.5698 156.224 29.5968 154.817 29.6317L153.109 29.5497L151.271 29.3453C151.224 29.3497 151.179 29.3591 151.127 29.3796C151.087 29.386 151.011 29.4299 150.888 29.5044C150.843 29.5138 150.758 29.5295 150.632 29.5385C150.298 29.5509 149.543 29.5521 148.375 29.544L147.653 29.4763C147.365 29.4581 147.065 29.441 146.756 29.43L146.744 29.4311C146.403 29.3941 146.145 29.3626 145.971 29.3365C145.783 29.3196 145.471 29.3036 145.043 29.2904C144.456 29.3288 143.914 29.3578 143.423 29.3793L143.404 29.3784C143.299 29.3802 143.195 29.3819 143.083 29.3817C141.431 29.2498 139.986 29.1618 138.757 29.1198L137.52 29.0022L138.259 28.8104L138.669 28.8015C140.106 28.8269 141.273 28.8431 142.175 28.852C143.655 28.863 144.419 28.8557 144.468 28.8301L146.858 28.9257C147.363 28.9081 147.185 28.8033 146.335 28.6053L146.347 28.6042C147.243 28.6848 148.102 28.7425 148.929 28.7741C150.974 28.8357 152.501 28.8685 153.504 28.8787C153.896 28.8821 154.211 28.8819 154.451 28.8782C154.551 28.8321 153.639 28.7426 151.701 28.6106C151.47 28.595 150.995 28.5862 150.285 28.578C150.073 28.5764 149.838 28.577 149.577 28.5748C148.811 28.4691 148.263 28.4143 147.909 28.4127C147.802 28.4094 147.712 28.4151 147.648 28.4236L147.564 28.076L155.87 28.4052C156.543 28.3905 156.979 28.3713 157.194 28.3436C157.765 28.1146 159.425 27.872 162.186 27.6279C162.702 27.6435 163.069 27.6702 163.298 27.707C163.763 27.938 164.345 28.0712 165.049 28.1037C165.101 28.1094 165.163 28.109 165.239 28.1125C165.405 28.1103 165.619 28.1038 165.877 28.0879L169.019 27.8008C169.043 27.7986 169.073 27.7984 169.116 27.7971C169.565 27.803 170.879 27.9504 173.046 28.2403C173.665 28.241 174.097 28.2249 174.343 28.197L177.704 27.6237C178.552 27.7561 180.566 27.8916 183.727 28.0293C185.801 27.8222 187.386 27.7234 188.488 27.735C188.849 27.7385 189.153 27.7526 189.408 27.7791C190.033 27.6557 191.231 27.5162 192.996 27.3587L195.617 27.4698L198.456 27.7056C198.717 27.6947 198.97 27.6687 199.213 27.6226L200.76 27.185C200.81 27.1857 200.86 27.1864 200.915 27.184C201.345 27.1891 201.989 27.2139 202.864 27.2543L204.868 26.5562C203.415 26.4531 202.478 26.4001 202.048 26.395C201.998 26.3943 201.955 26.3956 201.92 26.3989C202.141 26.3338 202.219 26.2817 202.163 26.2448L202.144 26.2439C201.495 26.3433 200.094 26.3883 197.959 26.3798L195.921 26.3545C195.456 26.3052 194.721 26.2598 193.729 26.2222L190.063 26.1627C189.733 26.159 189.415 26.1541 189.104 26.1512C186.199 26.1268 184.077 26.1435 182.733 26.2042L167.656 25.9439C166.069 25.9771 164.487 26.0072 162.9 26.0403C159.789 26.3878 157.67 26.5569 156.533 26.5485C156.414 26.5463 156.3 26.5411 156.197 26.5347C156.017 26.4855 155.83 26.4343 155.619 26.3853L155.608 26.3864L155.598 26.3794L155.586 26.3805C155.655 26.382 155.721 26.3785 155.79 26.3801C156.051 26.3823 156.308 26.3876 156.555 26.399C157.217 26.3722 157.579 26.3415 157.634 26.3048C157.9 26.2434 157.992 26.1559 157.917 26.0444C157.785 25.896 157.585 25.8065 157.296 25.7752L157.284 25.7763C157.628 25.7709 157.951 25.7596 158.254 25.7474L158.424 25.8502C159.128 25.8827 159.751 25.9016 160.274 25.906C160.834 25.9123 161.292 25.899 161.638 25.8724L162.83 25.952C162.837 25.954 162.856 25.9548 162.868 25.9537C163.018 25.9557 163.266 25.8592 163.588 25.6662L168.389 25.6552L171.776 25.3876C172.414 25.4367 173.528 25.5683 175.122 25.7793C178.53 25.881 181.517 25.9451 184.092 25.9657C184.84 25.9757 185.56 25.9778 186.234 25.9762L190.747 25.7311C190.949 25.7387 191.182 25.7462 191.455 25.7474C192.208 25.7543 193.222 25.7372 194.488 25.6941L198.354 25.7088L199.326 25.6719L198.073 25.6452L193.211 25.2801C192.953 25.2829 192.694 25.2857 192.452 25.2843C191.991 25.2794 191.556 25.2643 191.142 25.2419C190.923 25.3463 190.656 25.3946 190.333 25.3928C190.129 25.3932 189.893 25.3676 189.639 25.3199C189.354 25.4409 189.044 25.5117 188.712 25.5291C186.465 25.3862 184.106 25.2905 181.631 25.245L178.904 25.0962C178.544 25.1058 178.178 25.1053 177.817 25.1017C177.283 25.0984 176.748 25.0818 176.224 25.0512L174.153 25.2027L175.069 25.1288L175.05 25.1279C174.077 25.1518 173.56 25.1705 173.478 25.1912C172.827 25.1775 172.43 25.1641 172.272 25.147C171.64 25.1817 171.147 25.1982 170.781 25.1977L169.573 25.1485C169.12 25.1718 168.036 25.1955 166.325 25.2164C165.012 25.0821 164.102 25.0107 163.599 25.0071C163.549 25.0064 163.499 25.0057 163.456 25.007L160.296 25.2459L159.076 25.2714C158.682 25.3236 158.139 25.3526 157.477 25.3531C157.367 25.3448 157.251 25.3345 157.122 25.3253L157.106 25.3294C157.118 25.1598 156.91 24.921 156.468 24.6142C156.313 24.6022 156.185 24.593 156.066 24.5907L156.042 24.5929C156.265 24.5803 156.461 24.5648 156.639 24.5484C156.67 24.5008 156.811 24.4483 157.075 24.395L157.056 24.3942C157.086 24.394 157.122 24.3907 157.153 24.3905L158.553 24.4878L159.039 24.106L159.02 24.1051C159.282 24.073 159.568 24.0387 159.88 24.0073L159.888 24.0093C160.167 24.0467 160.508 24.0837 160.913 24.1253L162.334 24.1074C162.54 24.1333 162.906 24.16 163.425 24.1807L163.413 24.1818C163.671 24.2395 163.984 24.2818 164.32 24.3087C164.41 24.3162 164.513 24.3225 164.624 24.3228C164.829 24.3224 165.066 24.3137 165.333 24.2916L167.593 24.0833L168.575 24.019L168.594 24.0199C169.279 24.0515 170.555 24.1971 172.419 24.4517L172.766 24.4513C173.257 24.4429 173.572 24.4296 173.709 24.4065L177.073 23.8382C178.368 23.9978 180.375 24.1313 183.1 24.2407C185.144 24.0338 186.724 23.9381 187.849 23.9475C188.21 23.9511 188.515 23.9651 188.782 23.9905C189.12 23.9014 190.276 23.7632 192.24 23.5821L192.259 23.583L193.082 23.6913L194.332 23.6524L194.327 23.6555L194.99 23.6812C195.471 23.7132 196.189 23.7839 197.145 23.8984C197.331 23.9103 197.495 23.9162 197.644 23.9182C197.756 23.9185 197.86 23.9167 197.95 23.9111C197.977 23.9139 197.996 23.9148 198.019 23.9126C198.276 23.9179 198.733 23.8178 199.385 23.6155L199.361 23.6177C199.897 23.5868 200.285 23.572 200.53 23.5652C200.259 23.556 199.978 23.5398 199.685 23.5246L199.669 23.5288L199.674 23.5257C198.748 23.4716 197.853 23.4172 196.998 23.3565L196.979 23.3556C196.908 23.349 196.848 23.3413 196.808 23.3346C196.501 23.3155 195.703 23.2574 194.405 23.1533C194.224 23.1384 194.043 23.1235 193.867 23.1056L193.85 23.1097C191.484 22.8909 189.464 22.6455 187.789 22.3603C184.604 22.3459 182.713 22.365 182.107 22.4156L167.03 22.1553L162.273 22.2518C159.86 22.5217 158.035 22.6847 156.805 22.7376L156.8 22.7407C157.096 22.5186 157.434 22.369 157.816 22.2916L155.349 22.2269C155.337 22.228 155.325 22.2291 155.318 22.2271C155.207 22.2269 155.098 22.2317 154.987 22.2445L154.76 22.5418L154.756 22.5449C154.267 22.4241 153.771 22.3145 153.262 22.214L153.25 22.2151L153.332 22.1944C153.728 22.2421 153.995 22.2675 154.118 22.2667C154.137 22.2676 154.149 22.2665 154.161 22.2654L154.276 21.9678L154.185 21.9604L154.204 21.9613C154.732 21.9758 155.214 21.9866 155.668 21.9895C156.428 21.9984 157.078 21.9858 157.62 21.9569L157.791 22.0597C158.544 22.0928 159.186 22.1126 159.709 22.1171C160.269 22.1233 160.703 22.1122 161.004 22.0819L162.165 22.1617C162.173 22.1636 162.185 22.1626 162.196 22.1615C162.403 22.1661 162.651 22.0695 162.962 21.8776L167.762 21.8667L170.293 21.6676L171.176 21.723L171.183 21.725C171.154 21.7171 171.113 21.7103 171.068 21.7066C170.949 21.6913 170.794 21.6792 170.604 21.6705C170.551 21.6648 170.494 21.6621 170.418 21.6586L170.394 21.6608L171.149 21.5991C172.026 21.6788 173.145 21.8073 174.495 21.9908L180.254 22.1337L185.603 22.1907L186.688 22.1327C185.837 21.9216 185.272 21.7368 184.976 21.5824C182.02 21.5049 179.794 21.4153 178.278 21.3076C177.872 21.3134 177.483 21.3151 177.11 21.3126C176.568 21.3073 176.064 21.2906 175.598 21.2625L173.519 21.4121L174.447 21.337L174.43 21.3412C173.571 21.3572 173.043 21.377 172.844 21.4006L171.641 21.3614C170.959 21.3954 170.485 21.4128 170.223 21.4106C170.197 21.4077 170.174 21.4099 170.154 21.4091C169.562 21.3768 169.158 21.3614 168.946 21.3599C168.359 21.3851 167.471 21.4064 166.301 21.4195L166.297 21.4225L165.604 21.3759C164.957 21.2854 163.311 21.1293 160.664 20.9073C160.39 20.8799 160.152 20.8493 159.956 20.8173C159.475 20.7116 159.185 20.6541 159.071 20.6488L158.039 20.6045L158.034 20.6075L158.664 20.1177C159.085 20.2026 159.624 20.2766 160.286 20.3366L161.708 20.3188C162.648 20.39 163.538 20.4343 164.374 20.4467L164.351 20.4489L167.199 20.618C167.815 20.6349 168.205 20.6464 168.366 20.6473C168.416 20.6479 168.44 20.6457 168.44 20.6457C168.773 20.6677 169.035 20.683 169.237 20.6907C169.351 20.696 169.451 20.6973 169.508 20.6999C169.543 20.6967 169.569 20.6995 169.581 20.6984C169.717 20.6965 169.811 20.6746 169.883 20.6338C169.875 20.6056 169.777 20.5356 169.561 20.4291C169.607 20.3723 169.7 20.3373 169.854 20.3231C170.245 20.2871 170.752 20.2614 171.385 20.2399C171.8 20.2279 172.206 20.2221 172.597 20.2255C172.859 20.2277 173.115 20.233 173.363 20.2444C174.024 20.2176 174.386 20.1869 174.442 20.1502C174.708 20.0888 174.799 20.0013 174.717 19.8879C174.664 19.8216 174.589 19.7707 174.504 19.7258L174.48 19.728L176.778 19.4608L173.816 19.4339L173.812 19.4369L174.535 19.2281C174.585 19.2287 174.646 19.2283 174.704 19.2309C175.15 19.2319 175.92 19.2609 177.012 19.3129L179.355 19.4996L179.817 19.5782C180.153 19.6314 180.354 19.6602 180.426 19.6668L180.82 19.7358C180.939 19.7511 181.011 19.7577 181.018 19.7596L181.03 19.7585C181.049 19.7594 181.075 19.7623 181.099 19.7601C181.179 19.7605 181.258 19.756 181.34 19.7483C181.518 19.732 181.846 19.6833 182.335 19.6092C182.488 19.5951 182.609 19.5892 182.69 19.5896C182.697 19.5916 182.709 19.5905 182.716 19.5925C182.828 19.5927 182.933 19.6041 183.009 19.6207C183.291 19.7106 183.437 19.755 183.456 19.7559C183.7 19.8097 183.896 19.8417 184.039 19.8548C184.201 19.8689 184.387 19.8807 184.613 19.8862C184.826 19.8928 184.995 19.8957 185.126 19.8968C185.195 19.8983 185.249 19.8959 185.287 19.8977C185.442 19.8966 185.589 19.8936 185.74 19.8875L186.502 19.741L185.653 19.5823C185.516 19.558 185.416 19.5436 185.357 19.5359C185.335 19.53 185.256 19.5215 185.151 19.5101L183.954 19.373C183.282 19.306 182.88 19.2694 182.744 19.2582C182.672 19.2516 182.508 19.2457 182.252 19.2404L182.233 19.2395L184.778 19.0706C185.422 19.0823 186.005 19.0944 186.553 19.1017L186.53 19.1039C186.513 19.1081 186.514 19.1212 186.533 19.1352C186.598 19.1529 186.686 19.1684 186.787 19.1829L188.428 19.3764L192.455 19.9028L196.371 19.7839C196.699 19.7958 197.25 19.8081 198.027 19.826C198.042 19.8299 198.103 19.8295 198.203 19.8308C198.303 19.8322 198.453 19.8342 198.638 19.8329C199.609 19.7828 200.188 19.7636 200.373 19.7624C200.385 19.7613 200.399 19.7652 200.411 19.7641C200.43 19.765 200.454 19.7628 200.473 19.7637C200.753 19.7668 201.15 19.7933 201.677 19.8422C201.842 19.8138 202.076 19.7869 202.379 19.7616C203.439 19.714 204.163 19.6656 204.537 19.6206C204.527 19.6136 204.444 19.6081 204.277 19.5972C203.864 19.5879 203.419 19.5657 202.94 19.5256C201.944 19.4911 200.952 19.4536 199.963 19.421L198.785 19.406L197.968 19.5155C197.784 19.4956 197.656 19.4864 197.599 19.4838C196.211 19.4459 195.074 19.4033 194.204 19.3598L192.873 19.2772L192.325 19.2224L191.77 19.1657L190.079 18.924C189.994 18.9135 189.879 18.9083 189.737 18.9082L189.711 18.9054C189.699 18.9065 189.687 18.9076 189.668 18.9067C189.618 18.906 189.564 18.9084 189.502 18.9089C189.44 18.9093 189.253 18.9186 188.952 18.9359C188.94 18.937 188.928 18.938 188.917 18.9391L188.924 18.9411L186.968 18.7003L184.867 18.5755L184.044 18.5408C182.884 18.574 181.195 18.6008 178.983 18.6232C177.319 18.5054 176.272 18.4441 175.83 18.44C175.78 18.4394 175.737 18.4407 175.699 18.4389C175.941 18.3666 176.02 18.3146 175.943 18.2848L175.926 18.289C175.677 18.3593 174.765 18.404 173.191 18.4148L173.186 18.4179C173.281 18.4092 173.364 18.4015 173.439 18.3919C173.556 18.2206 175.195 17.9852 178.36 17.6828C178.793 17.6929 179.16 17.7196 179.468 17.7649C179.843 17.9672 180.399 18.0976 181.128 18.1542C181.218 18.1616 181.321 18.168 181.425 18.1662C181.636 18.1678 181.874 18.1591 182.141 18.1371L185.193 17.8556C185.811 17.8645 187.155 18.0117 189.227 18.2971L189.605 18.2965C190.065 18.2883 190.361 18.2742 190.517 18.2519L193.881 17.6836C195.169 17.8413 197.183 17.9767 199.908 18.0861C202.02 17.8808 203.508 17.7857 204.365 17.7909C204.427 17.7905 204.484 17.7932 204.541 17.7958L203.952 17.6606L207 16.6555L206.176 16.2181C205.834 16.2154 205.504 16.2116 205.181 16.2098C202.312 16.1821 200.228 16.2006 198.915 16.2611L183.838 16.0008L180.951 16.0591L180.946 16.0622C180.653 16.0339 180.298 16.0061 179.867 15.9748C179.676 15.9529 179.531 15.9347 179.412 15.9194L179.4 15.9205C179.512 15.8733 179.633 15.8068 179.77 15.7231L184.57 15.7122L187.957 15.4446C188.827 15.5223 189.945 15.6509 191.303 15.8363C194.45 15.9357 197.43 15.9979 200.235 16.0209C200.969 16.0269 201.696 16.031 202.411 16.0362L206.261 15.826L206.919 15.4177L206.9 15.4168C206.83 15.4365 206.728 15.4432 206.586 15.4432C206.393 15.4425 206.134 15.4191 205.814 15.3749C205.463 15.5125 205.152 15.5833 204.886 15.5841L201.435 15.4101C200.296 15.3887 198.982 15.3493 197.481 15.285L195.086 15.1532C194.68 15.159 194.291 15.1607 193.918 15.1582C193.376 15.1529 192.86 15.1373 192.399 15.1061L190.327 15.2577L191.25 15.1857L191.231 15.1848C190.379 15.2028 189.851 15.2226 189.652 15.2462C189.092 15.24 188.687 15.2246 188.442 15.2051C187.926 15.2369 187.432 15.2534 186.962 15.2547C186.37 15.2224 185.966 15.207 185.754 15.2055C185.058 15.2355 183.978 15.2561 182.5 15.2713C181.231 15.1408 180.31 15.0705 179.726 15.0664C179.699 15.0636 179.669 15.0638 179.638 15.064L176.473 15.3059L176.067 15.3117L176.062 15.3148C175.499 15.2904 174.938 15.2711 174.369 15.2497L173.191 15.2347L172.468 15.3355C171.902 15.3061 171.129 15.2721 170.15 15.2334C169.524 15.0753 168.977 14.9862 168.503 14.9561C168.214 15.0197 167.876 15.0745 167.479 15.1217L167.486 15.1236L167.286 15.1079L166.738 15.0531L166.183 14.9964L164.481 14.7558C164.395 14.7453 164.281 14.74 164.143 14.7369L164.119 14.7391C164.107 14.7402 164.1 14.7382 164.088 14.7393C164.038 14.7387 163.977 14.7391 163.915 14.7395C163.6 14.7528 163.413 14.7622 163.361 14.7696C163.001 14.7923 162.662 14.8208 162.352 14.8573L160.983 14.9283C160.928 14.9307 160.91 14.9429 160.946 14.9659C161.04 14.9915 161.136 15.009 161.24 15.0204L162.841 15.2072L164.487 15.4239L164.468 15.423C164.642 15.4491 164.85 15.4799 165.101 15.5095C164.689 15.4921 164.124 15.4759 163.406 15.4525L163.389 15.4567L163.277 15.4302C163.091 15.4184 162.846 15.412 162.544 15.403L162.402 15.403C162.124 15.4049 161.901 15.4044 161.737 15.4116C161.148 15.3975 160.497 15.3838 159.789 15.3675L159.777 15.3686L159.77 15.3666C159.65 15.3513 159.576 15.3397 159.557 15.3388L158.801 15.2532L158.816 15.2571C158.935 15.2593 159.042 15.2626 159.153 15.2629C159.403 15.2662 159.659 15.2584 159.905 15.2436L159.487 14.982C159.58 14.9339 159.71 14.9088 159.847 14.9119C160.04 14.9126 160.267 14.9575 160.527 15.0415L160.738 14.8482C160.76 14.8067 160.452 14.7745 159.791 14.7538L159.731 14.5383L158.927 14.565L158.926 14.1754C158.912 14.1715 158.886 14.1687 158.86 14.1658L158.848 14.1669C159.217 14.0644 159.583 14.0175 159.956 14.02C160.017 14.0196 160.074 14.0222 160.132 14.0248L160.139 14.0268C160.122 14.0178 160.134 14.0167 160.165 14.0165C160.307 14.0165 160.855 14.0713 161.818 14.1747L161.785 14.6069C162.805 14.397 163.394 14.29 163.544 14.2919C163.551 14.2939 163.563 14.2928 163.563 14.2928C163.806 14.3073 164.023 14.332 164.212 14.362C164.668 14.5517 164.989 14.6483 165.184 14.6541C167.148 14.4861 168.237 14.3988 168.437 14.4016C168.456 14.4024 168.463 14.4044 168.468 14.4014C168.526 14.4302 168.956 14.4484 169.783 14.4538C170.593 14.4634 171.775 14.4623 173.33 14.4506L174.727 14.5429L175.472 13.9635C175.893 14.0484 176.432 14.1223 177.095 14.1824L178.509 14.1625C179.554 14.2451 180.537 14.2888 181.458 14.2986L189.948 13.7263L193.586 13.3066L179.366 13.1725L179.349 13.1766C179.313 13.1537 179.257 13.1298 179.19 13.1071L179.209 13.108C179.247 13.1097 179.297 13.1104 179.366 13.1119C179.82 13.1149 180.861 13.0794 182.484 13.0087C184.69 13.0843 186.367 13.1534 187.525 13.2151L188.349 13.2024L190.497 13.128L193.315 12.8603L194.365 12.8318C194.582 12.7829 193.07 12.7459 189.828 12.7157C189.368 12.7108 188.864 12.7072 188.33 12.7039L185.511 12.4478L183.772 12.0974C182.939 12.1032 181.884 12.1609 180.613 12.2676C179.653 12.2904 178.907 12.2985 178.378 12.2921C178.297 12.2916 178.224 12.2932 178.155 12.2916L176.648 11.8145C176.375 11.7528 176.084 11.7165 175.782 11.7075L173.032 11.8768L170.41 11.9212C168.915 11.7589 167.738 11.5883 166.886 11.4116C166.666 11.4293 166.398 11.4382 166.087 11.4353C165.018 11.4285 163.398 11.2883 161.249 11.0205C160.824 11.0255 160.418 11.0313 160.027 11.0411L162.94 10.5486C164.228 10.7062 166.242 10.8417 168.967 10.9511C171.011 10.7442 172.591 10.6485 173.716 10.6579C174.07 10.6595 174.382 10.6755 174.649 10.7009C174.992 10.6087 176.19 10.4692 178.237 10.2805L180.85 10.3897L183.604 10.628C183.894 10.625 184.17 10.5969 184.453 10.5444L185.989 10.1079C186.044 10.1055 186.094 10.1062 186.163 10.1077C186.604 10.1117 187.375 10.1408 188.466 10.1928L191.603 10.4406L193.386 10.1366L196.233 9.95046C197.889 9.97941 199.212 9.99955 200.184 10.01C201.725 10.0206 202.42 10.0117 202.269 9.97038L201.234 9.921L198.479 9.58273C197.801 9.53998 197.077 9.49349 196.321 9.45532L195.503 9.41757C194.338 9.45386 192.649 9.48066 190.442 9.49993C188.778 9.38222 187.731 9.32083 187.289 9.3168C187.239 9.31614 187.189 9.31547 187.154 9.31874C187.4 9.24336 187.479 9.19135 187.397 9.16466L187.385 9.16575C187.04 9.26603 185.458 9.30925 182.632 9.29346L181.162 9.27635C180.53 9.21612 179.795 9.17073 178.963 9.14214L175.304 9.08463C174.986 9.07976 174.682 9.07883 174.383 9.07484C171.414 9.0459 169.28 9.06364 167.974 9.12611L152.897 8.86581L148.14 8.96222C146.741 9.12024 145.544 9.23851 144.541 9.32311L144.577 9.22495L144.565 9.22604C144.357 9.2295 144.152 9.2299 143.972 9.22812C143.411 9.2219 142.966 9.18662 142.636 9.12229L143.105 8.9606C144.208 8.93785 144.771 8.90166 144.777 8.85115L144.775 8.8118L144.794 8.81268C145.077 8.82082 145.334 8.82612 145.576 8.82747C146.136 8.83369 146.571 8.82263 146.871 8.79229L148.025 8.87012C148.04 8.87405 148.052 8.87296 148.063 8.87187C148.263 8.87453 148.518 8.77992 148.829 8.58803L153.629 8.5771L157.016 8.30949C157.886 8.38726 159.004 8.51579 160.362 8.7012C163.51 8.80058 166.489 8.86278 169.294 8.88582C170.028 8.89186 170.755 8.89593 171.47 8.90109L175.981 8.65096C176.178 8.66171 176.404 8.66722 176.672 8.67142C177.399 8.67549 178.419 8.66037 179.728 8.616L183.594 8.63071L184.566 8.59373L184.543 8.59591C184.481 8.59633 184.405 8.59282 184.319 8.59543C184.07 8.5921 183.737 8.58329 183.314 8.56704L178.44 8.20304C178.181 8.20583 177.927 8.20557 177.685 8.20421C177.224 8.19932 176.785 8.18721 176.375 8.16178C176.049 8.26294 175.821 8.31296 175.69 8.31185C175.666 8.31403 175.652 8.31009 175.626 8.30724L174.873 8.23977C174.522 8.37744 174.211 8.44821 173.945 8.44904L170.494 8.27502C168.776 8.23339 167.454 8.19207 166.541 8.14992L164.145 8.01809C163.739 8.02393 163.35 8.02559 162.977 8.02313C162.435 8.01778 161.924 7.99911 161.458 7.97104L159.386 8.1226L160.314 8.04756L160.29 8.04975C159.439 8.06773 158.91 8.08753 158.711 8.1111C158.151 8.10488 157.747 8.0895 157.501 8.07C156.985 8.10182 156.492 8.11834 156.022 8.11958C155.429 8.08733 155.025 8.07195 154.814 8.07038C154.117 8.10043 153.037 8.121 151.559 8.13626C150.295 8.00268 149.369 7.93538 148.789 7.92828C148.759 7.92849 148.728 7.9287 148.697 7.92892L146.431 8.10099L146.42 8.10208C146.857 7.74581 146.932 7.54142 146.626 7.48802C146.401 7.42195 146.236 7.38979 146.136 7.38846C146.086 7.38779 146.058 7.39303 146.039 7.40527C145.551 7.43185 145.008 7.50827 144.417 7.63649C143.17 7.68043 141.995 7.75716 140.888 7.86972C141.26 7.91963 141.438 7.97694 141.426 8.03859L140.913 8.01488L140.901 8.01598C140.85 7.92852 140.739 7.8334 140.574 7.72755L140.171 7.9332L140.178 7.93517L139.043 7.81079L139.036 7.80882C138.955 7.80837 138.839 7.85863 138.681 7.96266C138.669 7.96375 138.665 7.96681 138.653 7.9679L138.648 7.97096C138.414 7.92413 138.189 7.88431 137.979 7.86153L137.998 7.86241L138.022 7.86023L137.954 7.62956C138.699 7.62139 139.175 7.59591 139.399 7.54894C139.412 7.52665 139.426 7.50435 139.444 7.47899L139.427 7.48314C139.965 7.45723 140.732 7.44184 141.714 7.42497L142.889 7.34823L143.786 7.40764L143.954 7.27628L143.966 7.27519L143.959 7.27322L144.277 7.02274L144.296 7.02362C144.37 7.0221 144.45 7.02256 144.519 7.0241C145.068 7.03141 145.512 7.02734 145.853 7.01691L145.868 7.02084C145.958 7.02829 146.056 7.03771 146.154 7.04713L147.568 7.02728C148.18 7.08663 149.158 7.13339 150.517 7.16334L159.007 6.59103L159.503 6.5321L159.518 6.53603C159.914 6.58377 160.346 6.64134 160.823 6.70264L161.169 6.70227C161.594 6.69731 161.902 6.68207 162.08 6.6657L164.998 6.17017L164.993 6.17323L165.684 6.28857C166.021 6.34176 166.226 6.3676 166.297 6.37417L166.687 6.44617C166.732 6.44989 166.799 6.45952 166.885 6.47003C166.916 6.46982 166.935 6.4707 166.966 6.47048C167.042 6.474 167.12 6.46942 167.207 6.45872C167.378 6.44039 167.708 6.39672 168.178 6.32183L168.192 6.32577C168.447 6.33915 168.728 6.35538 169.02 6.37052L169.001 6.36964C169.201 6.43286 169.304 6.46546 169.323 6.46633C169.567 6.52016 169.763 6.55211 169.906 6.56526C169.985 6.5738 170.133 6.58388 170.366 6.59136C170.511 6.59641 170.675 6.60234 170.867 6.60304L171.154 6.60812C171.309 6.60705 171.456 6.60402 171.607 6.59793L172.369 6.45138L172.225 6.42512L172.213 6.42621C173.42 6.31493 174.431 6.24538 175.263 6.21341L175.282 6.21429L178.315 6.61119L182.238 6.49431C182.566 6.50617 183.117 6.51852 183.89 6.53943C183.909 6.54031 183.97 6.53988 184.07 6.54122C184.17 6.54255 184.32 6.54454 184.505 6.54326C185.476 6.49316 186.048 6.47206 186.233 6.47077C186.252 6.47165 186.266 6.47559 186.278 6.4745C186.297 6.47538 186.316 6.47625 186.34 6.47407C186.62 6.47719 187.017 6.50371 187.544 6.55256C187.709 6.52417 187.943 6.49732 188.246 6.47202C189.306 6.42434 190.023 6.37398 190.404 6.33097C190.394 6.32398 190.311 6.3185 190.144 6.30753C189.731 6.29828 189.279 6.27414 188.807 6.23601C188.032 6.21007 187.262 6.18107 186.491 6.15207L186.479 6.15316C186.676 6.13768 186.83 6.1235 186.936 6.10056L188.533 5.65049C188.649 5.64767 188.773 5.64682 188.899 5.651C190.086 5.65996 191.833 5.77002 194.139 5.98119L195.93 5.67917L198.776 5.49301C200.402 5.52216 201.694 5.5425 202.658 5.55098C203.715 5.55883 204.382 5.55524 204.659 5.5402L204.666 5.54217C204.709 5.54086 204.733 5.53868 204.745 5.53759L204.726 5.53671C204.707 5.53583 204.683 5.53802 204.659 5.5402C204.329 5.53642 203.125 5.39737 201.049 5.12809L198.864 4.99783L198.046 4.96007C196.481 4.99914 194.791 5.02595 192.978 5.04047C191.321 4.92473 190.262 4.86443 189.82 4.8604C189.771 4.85974 189.728 4.86104 189.697 4.86126L189.845 4.76334L189.829 4.76749C189.569 4.80461 188.019 4.8264 185.176 4.8359L183.698 4.81684C183.233 4.76756 182.498 4.72218 181.506 4.68461L177.841 4.62513C177.499 4.62244 177.176 4.62063 176.857 4.61577C173.995 4.59009 171.873 4.60678 170.51 4.66667L155.434 4.40637C153.846 4.43953 152.259 4.47267 150.677 4.50278C148.029 4.79961 146.1 4.96432 144.893 5.0019L144.889 5.00496L144.812 4.92777C144.485 4.94214 144.174 4.95236 143.871 4.96455C143.59 4.87464 143.022 4.74533 142.161 4.57465L142.149 4.57574C144.279 4.45305 145.131 4.38765 144.706 4.37946C144.376 4.37568 144.05 4.36884 143.739 4.36594C142.756 4.35658 141.87 4.35663 141.068 4.36219C140.822 4.31646 140.561 4.26678 140.281 4.21623L140.976 4.14683C141.938 4.19773 142.869 4.22763 143.779 4.23851C144.544 4.24434 145.296 4.23813 146.031 4.20985L146.29 4.32817C146.958 4.35081 147.535 4.366 148.008 4.3698C148.661 4.37539 149.126 4.3641 149.415 4.33486L150.671 4.41904C150.835 4.39874 151.071 4.30325 151.366 4.12862L156.166 4.11769L159.553 3.85008C161.174 4.01653 162.288 4.14814 162.899 4.24179C166.545 4.34782 169.551 4.41285 171.933 4.43276C172.693 4.44165 173.382 4.44396 174.006 4.44167L178.524 4.1935C178.734 4.20316 178.978 4.20955 179.251 4.21069C180.023 4.21849 181.029 4.19943 182.265 4.15659C183.557 4.16383 184.846 4.16603 186.131 4.1713L187.11 4.13628L187.091 4.13541C186.998 4.13605 186.898 4.13471 186.806 4.13535C186.488 4.13048 186.174 4.12256 185.85 4.10763L180.984 3.74559C180.737 3.74729 180.483 3.74702 180.24 3.74566C179.787 3.74274 179.347 3.73063 178.919 3.70432L178.234 3.85439L177.416 3.78231C177.131 3.90337 176.821 3.97414 176.489 3.99158L173.03 3.8156C171.514 3.78165 170.307 3.7456 169.408 3.70739L166.681 3.55867C166.394 3.5667 166.074 3.56993 165.72 3.56832C165.209 3.56276 164.636 3.54451 164.001 3.51357L161.925 3.66819L162.822 3.59337L162.81 3.59446C161.617 3.62287 161.1 3.64158 161.255 3.65363C160.466 3.63688 160.062 3.62149 160.045 3.61253L160.033 3.61362C159.626 3.64066 159.132 3.65718 158.558 3.66014L157.35 3.61094C156.881 3.63841 155.79 3.66007 154.102 3.67879C152.701 3.54211 151.822 3.47046 151.48 3.46778C151.442 3.46602 151.411 3.46623 151.388 3.46841L148.068 3.71138L146.853 3.73389C146.21 3.79586 145.741 3.82332 145.449 3.8213C145.43 3.82042 145.399 3.82064 145.38 3.81976C144.609 3.76452 143.395 3.70528 141.752 3.64091C141.221 3.52145 140.821 3.44245 140.539 3.39999L140.528 3.40108C141.074 3.40337 141.895 3.39871 142.984 3.38514C143.044 3.52703 143.263 3.60425 143.629 3.60475C143.767 3.60784 143.935 3.59759 144.124 3.58014C144.264 3.39347 144.848 3.26328 145.878 3.1946C145.669 3.06383 145.466 2.95623 145.273 2.88187L145.285 2.88078L146.33 2.95028L147.067 2.36889C147.376 2.44043 147.92 2.51137 148.69 2.58781L150.112 2.56992C151.28 2.65169 152.196 2.69886 152.854 2.70138C152.923 2.70293 152.992 2.70447 153.054 2.70404L161.543 2.13173L165.188 1.71397C148.56 1.55716 131.94 1.40265 115.318 1.24809C115.702 1.22324 115.803 1.20337 115.608 1.18453L112.724 1.13984C111.492 1.07972 109.782 1.01885 107.596 0.957265C107.075 0.94471 106.477 0.936721 105.812 0.93223C104.983 0.921799 104.04 0.919223 102.988 0.921457C102.084 0.86008 101.325 0.82998 100.727 0.822006C100.415 0.819109 100.145 0.82299 99.9176 0.838689C101.986 0.72954 100.679 0.584138 95.9905 0.40052C95.791 0.39786 95.5914 0.395199 95.3847 0.390566C93.3137 0.373565 90.9983 0.42386 88.4484 0.548475C87.7469 0.521018 85.3133 0.339637 81.1453 0ZM112.134 30.8931L112.12 30.8892L112.108 30.8903L112.104 30.8933C112.058 30.8896 111.953 30.9257 111.789 30.9934C111.793 31.0984 111.786 31.1569 111.76 31.1672L111.452 31.3036L111.762 31.6567C111.775 31.6687 111.761 31.6779 111.732 31.6831C111.491 31.6475 111.215 31.6151 110.907 31.5829L110.798 31.5745L110.122 31.5368C110.088 31.532 110.071 31.523 110.057 31.506L110.096 31.3048C110.091 31.2948 110.086 31.2847 110.05 31.2749L108.81 31.126C108.674 31.1148 108.584 31.1074 108.534 31.1067C108.515 31.1058 108.503 31.1069 108.484 31.106C108.379 31.1078 108.339 31.1141 108.373 31.132C108.389 31.1622 108.479 31.2171 108.641 31.3048C108.634 31.4239 108.665 31.4974 108.733 31.5333C108.796 31.5722 108.844 31.5941 108.897 31.5998C109.013 31.6101 109.154 31.6182 109.33 31.623C108.976 31.6345 108.635 31.645 108.286 31.6534L108.442 31.6312L108.43 31.6323C108.369 31.6327 108.3 31.6311 108.238 31.6316C107.989 31.6282 107.708 31.612 107.388 31.5809C106.683 31.5091 106.122 31.4292 105.713 31.3432C105.682 31.3434 105.656 31.3405 105.632 31.3427C105.594 31.341 105.57 31.3431 105.558 31.3442C105.438 31.3632 105.308 31.3883 105.181 31.4185C105.158 31.4207 105.134 31.4229 105.103 31.4231C105.084 31.4222 105.072 31.4233 105.053 31.4224C105.015 31.4207 104.967 31.4119 104.905 31.3992L104.58 31.2844L103.944 31.3614L103.887 31.5273C103.875 31.5284 103.868 31.5265 103.863 31.5295C103.787 31.526 103.666 31.5188 103.511 31.5067L102.848 31.4467L102.663 31.4349C102.637 31.432 102.618 31.4311 102.587 31.4314C102.568 31.4305 102.549 31.4296 102.532 31.4338C102.426 31.4436 102.348 31.4481 102.298 31.4475C102.286 31.4486 102.279 31.4466 102.279 31.4466C102.271 31.4446 102.267 31.4477 102.267 31.4477C102.198 31.4462 102.186 31.3867 102.243 31.2682C102.241 31.2632 102.207 31.2452 102.139 31.2225C101.887 31.1405 101.576 31.0901 101.215 31.0734C101.177 31.0717 101.146 31.0719 101.108 31.0701L100.558 31.0972C100.535 31.0993 100.518 31.1035 100.513 31.1065C100.541 31.1487 100.633 31.1955 100.782 31.245C100.787 31.255 100.76 31.2734 100.704 31.297C100.942 31.3751 101.084 31.4488 101.132 31.5181C101.403 31.5273 101.674 31.5366 101.938 31.5438L102.036 31.5532L103.049 31.5493C103.23 31.5511 103.865 31.582 104.95 31.632C105.456 31.6538 105.846 31.6652 106.122 31.6714C106.741 31.6722 107.361 31.6729 107.985 31.6706C108.078 31.67 108.168 31.6643 108.251 31.6567L109.011 31.6787C109.393 31.7225 109.762 31.7543 110.138 31.7749L110.548 31.8266L111.744 31.9243C112.232 31.9582 112.765 31.9828 113.349 32L113.333 31.9305C113.318 31.9265 113.488 31.8951 113.825 31.8403C113.875 31.8278 113.893 31.8156 113.893 31.8025C113.843 31.7544 113.827 31.698 113.844 31.6333L113.369 31.3953C113.352 31.3863 113.356 31.3702 113.375 31.3579L115.157 31.2699C115.345 31.2737 115.544 31.2763 115.77 31.2818C115.974 31.2814 116.197 31.2819 116.444 31.2802C116.684 31.2765 116.802 31.2656 116.802 31.2525C116.72 31.2258 116.569 31.1976 116.34 31.174L115.085 31.0686C114.522 30.9836 114.154 30.9307 113.985 30.9147C113.804 30.9129 113.666 30.9098 113.567 30.9085C113.46 30.9052 113.393 30.9087 113.37 30.9108C113.27 30.9095 113.194 30.9191 113.138 30.9296C112.543 30.9054 112.208 30.8916 112.134 30.8931Z" fill="black"/>
</svg>
